<svg id="svg" version="1.1" xmlns="http://www.w3.org/2000/svg" xmlns:xlink="http://www.w3.org/1999/xlink" width="400" height="86.85714285714285" viewBox="0, 0, 400,86.85714285714285"><g id="svgg"><path id="path0" d="M225.477 31.762 C 223.546 32.378,222.432 34.007,222.405 36.250 L 222.388 37.750 221.735 37.844 C 220.068 38.083,218.667 39.635,218.667 41.243 C 218.667 41.742,218.571 41.889,218.022 42.236 C 214.322 44.572,215.618 50.312,219.954 50.792 L 221.079 50.917 221.206 51.803 C 221.668 55.011,224.224 56.819,227.530 56.278 L 228.310 56.150 228.411 56.867 C 228.466 57.261,228.452 59.782,228.380 62.469 L 228.250 67.355 148.518 67.339 C 104.665 67.330,68.721 67.284,68.643 67.235 C 68.338 67.047,68.482 65.695,68.818 65.588 C 69.506 65.370,69.862 64.235,69.867 62.250 C 69.872 60.015,69.365 59.012,68.226 59.004 C 67.637 59.000,67.313 58.273,65.318 52.500 C 65.112 51.904,64.872 51.323,64.785 51.208 C 64.664 51.049,63.371 51.000,59.333 51.000 C 54.832 51.000,54.010 50.963,53.833 50.750 C 53.550 50.408,51.950 50.408,51.667 50.750 C 51.247 51.256,49.650 51.078,48.667 50.417 C 47.546 49.662,47.663 49.637,45.711 51.042 C 44.787 51.706,42.749 53.172,41.182 54.299 C 38.291 56.377,38.154 56.524,38.565 57.087 C 38.765 57.360,38.857 57.376,39.237 57.203 C 39.792 56.950,39.917 57.193,39.763 58.224 C 39.672 58.831,39.566 58.986,39.093 59.212 C 38.530 59.480,38.168 60.264,38.419 60.670 C 38.479 60.768,38.432 60.964,38.315 61.106 C 38.066 61.405,38.013 62.927,38.233 63.417 C 38.316 63.600,38.398 63.995,38.415 64.294 C 38.448 64.858,39.055 65.667,39.446 65.667 C 39.600 65.667,39.667 65.920,39.667 66.506 L 39.667 67.345 38.042 67.298 C 36.696 67.258,36.427 67.207,36.478 67.000 C 36.512 66.862,36.578 66.244,36.626 65.625 L 36.711 64.500 36.043 64.500 C 35.676 64.500,35.081 64.604,34.721 64.731 C 33.937 65.007,33.500 64.791,33.500 64.127 C 33.500 63.484,33.091 63.230,32.778 63.678 C 32.639 63.876,32.567 64.147,32.618 64.279 C 32.676 64.431,32.578 64.554,32.353 64.613 C 31.734 64.775,31.677 65.962,32.262 66.511 C 32.963 67.170,32.800 67.274,31.000 67.314 L 29.333 67.351 29.333 66.550 C 29.333 65.882,29.414 65.673,29.816 65.293 C 30.770 64.393,30.803 60.085,29.863 59.324 C 29.609 59.118,29.475 58.764,29.396 58.089 L 29.285 57.142 29.878 57.254 C 30.380 57.348,30.501 57.309,30.665 57.003 C 30.945 56.479,30.825 56.307,29.557 55.417 C 27.436 53.928,27.477 53.993,27.515 52.169 L 27.548 50.583 26.753 50.532 C 25.774 50.468,25.361 50.594,25.639 50.872 C 25.907 51.140,25.895 52.501,25.625 52.497 C 25.510 52.495,24.601 51.895,23.603 51.163 C 22.606 50.432,21.684 49.833,21.554 49.833 C 21.323 49.833,13.237 55.559,12.595 56.176 C 12.323 56.438,12.303 56.552,12.466 56.910 C 12.663 57.341,13.062 57.470,13.252 57.164 C 13.613 56.580,13.688 57.535,13.649 62.200 L 13.607 67.198 13.220 67.345 C 12.772 67.515,12.719 67.754,13.097 67.899 C 13.956 68.228,390.833 67.997,390.833 67.667 C 390.833 67.345,390.722 67.333,387.694 67.333 C 382.350 67.333,377.492 67.136,377.277 66.910 C 377.170 66.799,376.971 66.538,376.833 66.330 C 376.696 66.122,376.416 65.757,376.211 65.518 C 375.639 64.850,375.591 64.790,375.024 64.007 C 374.733 63.605,374.304 63.157,374.071 63.013 C 373.838 62.868,373.070 62.028,372.365 61.144 C 371.660 60.261,370.183 58.417,369.083 57.045 C 367.983 55.674,366.161 53.378,365.033 51.943 C 363.905 50.507,362.923 49.333,362.851 49.333 C 362.727 49.333,358.276 54.996,351.683 63.542 L 348.758 67.333 336.546 67.367 C 329.829 67.386,324.015 67.405,323.625 67.409 L 322.917 67.417 322.833 63.943 C 322.745 60.256,322.706 60.096,321.814 59.799 C 321.686 59.757,321.606 56.710,321.546 49.621 L 321.460 39.504 321.980 39.018 C 323.067 38.004,321.977 36.461,320.744 37.269 C 320.179 37.640,320.184 38.468,320.755 39.005 C 321.165 39.390,321.175 39.454,321.130 41.325 L 321.083 43.250 319.269 43.333 L 317.454 43.417 317.393 44.000 C 317.295 44.935,317.232 45.000,316.422 45.000 C 315.648 45.000,315.368 45.268,316.042 45.363 C 316.370 45.410,316.411 45.501,316.367 46.093 C 316.297 47.063,316.799 47.667,317.679 47.667 C 318.633 47.667,319.044 47.199,318.972 46.194 C 318.922 45.495,318.954 45.411,319.292 45.363 C 319.920 45.274,319.710 45.000,319.014 45.000 C 318.074 45.000,317.833 44.864,317.833 44.333 C 317.833 43.750,318.052 43.667,319.577 43.667 C 321.342 43.667,321.212 42.983,321.141 51.891 L 321.079 59.622 320.543 60.073 L 320.007 60.524 319.962 63.970 L 319.917 67.417 310.667 67.417 L 301.417 67.417 301.374 53.719 L 301.331 40.021 301.874 39.969 C 302.425 39.916,302.770 39.032,302.387 38.656 C 302.227 38.499,287.482 38.426,264.449 38.469 L 248.148 38.500 248.199 39.208 C 248.247 39.878,248.282 39.921,248.833 40.000 L 249.417 40.083 249.462 43.071 C 249.487 44.714,249.447 46.119,249.373 46.194 C 249.207 46.359,248.153 45.647,248.225 45.418 C 248.552 44.378,246.112 42.007,244.708 42.001 C 244.562 42.000,244.500 41.659,244.500 40.854 C 244.500 39.712,244.367 39.268,243.618 37.920 C 243.246 37.250,243.147 37.197,241.623 36.848 C 240.437 36.577,239.917 36.623,238.720 37.101 L 237.634 37.536 236.992 36.909 C 236.435 36.365,236.374 36.235,236.536 35.933 C 236.808 35.425,236.762 33.830,236.459 33.250 C 235.309 31.047,232.604 30.960,231.063 33.076 L 230.713 33.557 230.080 32.924 C 228.889 31.733,227.034 31.265,225.477 31.762 M299.793 53.565 C 299.824 63.445,299.785 67.108,299.646 67.275 C 299.490 67.463,298.126 67.496,291.853 67.460 L 284.250 67.417 284.203 65.708 L 284.155 64.000 284.814 64.000 C 285.835 64.000,286.000 63.881,286.000 63.149 C 286.000 62.577,285.953 62.500,285.604 62.500 C 285.386 62.500,285.118 62.392,285.008 62.260 C 284.899 62.128,284.614 61.997,284.376 61.968 C 283.758 61.895,283.728 61.563,284.327 61.443 C 284.966 61.315,284.999 60.875,284.375 60.803 C 284.102 60.771,283.917 60.649,283.917 60.500 C 283.917 60.351,284.102 60.229,284.375 60.197 C 284.994 60.126,284.957 59.733,284.319 59.605 C 283.700 59.482,283.745 59.107,284.388 59.031 C 284.997 58.959,284.959 58.517,284.333 58.392 C 283.743 58.274,283.656 57.833,284.222 57.833 C 284.724 57.833,284.878 57.672,284.645 57.390 C 284.387 57.080,265.843 57.057,265.533 57.367 C 265.197 57.703,265.307 57.833,265.929 57.833 C 266.802 57.833,266.671 58.395,265.780 58.469 C 264.996 58.534,265.040 58.882,265.847 59.000 C 266.600 59.110,266.614 59.553,265.868 59.667 C 265.567 59.712,265.320 59.825,265.320 59.917 C 265.320 60.008,265.567 60.121,265.868 60.167 C 266.614 60.280,266.600 60.723,265.847 60.833 C 265.039 60.951,264.996 61.300,265.781 61.364 C 266.566 61.429,266.674 61.887,265.924 61.973 C 265.654 62.003,265.281 62.135,265.096 62.264 C 264.911 62.394,264.622 62.500,264.453 62.500 C 264.197 62.500,264.156 62.614,264.199 63.208 L 264.250 63.917 265.131 63.967 L 266.011 64.018 265.964 65.717 L 265.917 67.417 260.667 67.417 L 255.417 67.417 255.373 61.678 C 255.324 55.346,255.267 55.674,256.425 55.669 C 257.481 55.665,257.500 55.606,257.500 52.333 C 257.500 48.756,257.682 49.000,255.021 49.000 C 252.181 49.000,252.333 48.810,252.333 52.359 C 252.333 55.681,252.399 55.833,253.835 55.833 L 254.671 55.833 254.627 61.625 L 254.583 67.417 252.931 67.465 C 252.023 67.491,251.210 67.443,251.125 67.359 C 250.955 67.188,250.723 40.693,250.889 40.262 C 250.980 40.024,253.286 40.003,275.370 40.041 L 299.750 40.083 299.793 53.565 M62.570 43.981 C 61.241 44.791,61.581 46.812,63.093 47.096 C 65.045 47.462,65.938 44.833,64.172 43.919 C 63.532 43.588,63.193 43.601,62.570 43.981 M249.402 59.833 C 249.324 65.016,249.234 67.287,249.104 67.372 C 249.001 67.440,247.816 67.496,246.471 67.497 L 244.025 67.500 243.971 64.069 L 243.917 60.639 243.375 60.155 C 242.593 59.457,242.557 57.818,243.314 57.427 C 244.463 56.833,245.667 54.796,245.667 53.447 C 245.667 53.238,245.814 53.167,246.244 53.167 C 246.944 53.167,248.264 52.739,248.832 52.329 C 249.506 51.842,249.520 52.028,249.402 59.833 M230.000 56.000 C 230.459 56.234,230.982 56.333,231.757 56.333 C 232.748 56.333,232.931 56.388,233.555 56.875 C 233.937 57.173,234.418 57.510,234.623 57.625 C 235.150 57.920,237.074 57.890,237.678 57.578 C 238.362 57.224,238.345 57.082,238.294 62.585 L 238.250 67.417 233.750 67.417 L 229.250 67.417 229.206 61.542 C 229.182 58.310,229.204 55.667,229.255 55.667 C 229.305 55.667,229.641 55.817,230.000 56.000 M242.133 58.886 C 242.176 59.690,242.140 59.819,241.841 59.914 C 241.185 60.122,241.087 60.609,241.000 64.083 L 240.917 67.417 240.207 67.468 C 239.306 67.533,239.374 67.868,239.267 62.830 C 239.153 57.425,239.033 57.831,240.726 57.905 L 242.083 57.965 242.133 58.886 M282.757 58.011 C 282.943 58.312,282.844 58.321,278.825 58.370 C 271.244 58.461,267.333 58.363,267.333 58.083 C 267.333 57.769,282.563 57.698,282.757 58.011 M282.762 59.185 C 283.029 59.619,282.115 59.668,274.952 59.607 C 267.756 59.545,266.971 59.498,267.505 59.160 C 267.874 58.927,282.617 58.951,282.762 59.185 M67.013 59.854 C 66.975 59.980,66.928 60.290,66.909 60.542 C 66.850 61.338,66.836 61.391,66.718 61.273 C 66.579 61.135,66.496 59.808,66.614 59.617 C 66.748 59.400,67.090 59.603,67.013 59.854 M282.750 60.500 C 282.750 60.747,270.070 60.924,268.042 60.705 C 267.243 60.619,267.097 60.383,267.792 60.303 C 269.588 60.096,282.750 60.270,282.750 60.500 M282.833 61.650 C 282.833 62.066,267.513 62.124,267.375 61.708 C 267.320 61.544,268.932 61.500,275.069 61.500 C 279.555 61.500,282.833 61.563,282.833 61.650 M66.901 64.086 C 66.787 64.539,67.494 65.569,67.964 65.637 C 68.365 65.694,68.382 65.767,68.225 66.717 L 68.120 67.350 67.352 67.300 L 66.583 67.250 66.570 65.500 C 66.555 63.607,66.619 63.154,66.850 63.526 C 66.925 63.648,66.948 63.900,66.901 64.086 M281.014 64.000 L 282.500 64.000 282.497 65.542 C 282.496 66.390,282.435 67.178,282.361 67.293 C 282.257 67.458,280.686 67.494,275.072 67.460 L 267.917 67.417 267.869 65.711 L 267.822 64.004 273.453 63.960 C 276.549 63.936,279.183 63.935,279.305 63.958 C 279.427 63.981,280.196 64.000,281.014 64.000 M35.773 66.333 C 36.099 66.333,36.167 66.419,36.167 66.833 L 36.167 67.333 34.833 67.333 L 33.500 67.333 33.500 66.847 C 33.500 66.256,33.700 66.152,34.648 66.254 C 35.051 66.298,35.557 66.333,35.773 66.333 M27.667 72.667 C 27.667 72.775,29.861 72.833,33.917 72.833 C 37.972 72.833,40.167 72.775,40.167 72.667 C 40.167 72.559,37.972 72.500,33.917 72.500 C 29.861 72.500,27.667 72.559,27.667 72.667 M210.750 73.000 C 210.684 73.107,211.307 73.167,212.500 73.167 C 213.693 73.167,214.316 73.107,214.250 73.000 C 214.193 72.907,213.418 72.833,212.500 72.833 C 211.582 72.833,210.807 72.907,210.750 73.000 M136.083 73.833 C 136.148 73.938,137.946 74.000,140.927 74.000 C 143.976 74.000,145.667 73.941,145.667 73.833 C 145.667 73.726,143.941 73.667,140.823 73.667 C 137.637 73.667,136.016 73.724,136.083 73.833 M228.833 74.167 C 228.833 74.275,231.167 74.333,235.500 74.333 C 239.833 74.333,242.167 74.275,242.167 74.167 C 242.167 74.058,239.833 74.000,235.500 74.000 C 231.167 74.000,228.833 74.058,228.833 74.167 M251.833 74.167 C 251.833 74.268,252.583 74.333,253.750 74.333 C 254.917 74.333,255.667 74.268,255.667 74.167 C 255.667 74.065,254.917 74.000,253.750 74.000 C 252.583 74.000,251.833 74.065,251.833 74.167 M166.750 74.833 C 166.883 75.049,170.999 75.049,171.333 74.833 C 171.501 74.725,170.770 74.671,169.115 74.669 C 167.512 74.668,166.683 74.725,166.750 74.833 M66.125 75.954 C 66.423 75.991,66.910 75.991,67.208 75.954 C 67.506 75.917,67.262 75.887,66.667 75.887 C 66.071 75.887,65.827 75.917,66.125 75.954 M31.167 78.833 C 31.167 78.930,31.719 79.000,32.490 79.000 C 33.218 79.000,33.860 78.925,33.917 78.833 C 33.982 78.727,33.502 78.667,32.593 78.667 C 31.753 78.667,31.167 78.735,31.167 78.833 M102.583 78.833 C 102.640 78.925,103.240 79.000,103.917 79.000 C 104.593 79.000,105.193 78.925,105.250 78.833 C 105.316 78.727,104.832 78.667,103.917 78.667 C 103.002 78.667,102.518 78.727,102.583 78.833 M182.917 78.833 C 182.975 78.927,183.780 79.000,184.760 79.000 C 185.809 79.000,186.500 78.934,186.500 78.833 C 186.500 78.732,185.774 78.667,184.657 78.667 C 183.470 78.667,182.850 78.726,182.917 78.833 " stroke="none" fill="#ff0000" fill-rule="evenodd"></path><path id="path1" d="M364.417 2.436 C 361.773 3.083,360.214 6.166,361.330 8.540 C 361.684 9.293,362.978 10.667,363.334 10.667 C 363.430 10.667,363.576 10.844,363.658 11.060 C 363.950 11.830,365.802 11.804,366.795 11.016 C 368.970 9.291,369.395 8.592,369.390 6.750 C 369.382 4.027,366.859 1.838,364.417 2.436 M10.750 3.159 C 10.108 3.232,8.444 3.301,7.052 3.313 C 5.659 3.324,4.478 3.401,4.427 3.484 C 4.283 3.716,7.097 3.810,20.278 4.012 C 33.841 4.220,34.730 4.179,32.417 3.443 C 31.474 3.143,13.018 2.902,10.750 3.159 M38.924 11.458 C 38.698 14.553,38.690 14.565,37.644 13.260 C 36.919 12.357,36.372 11.926,36.555 12.404 C 36.754 12.921,36.867 14.626,36.708 14.724 C 36.619 14.780,36.254 14.686,35.898 14.516 C 34.212 13.710,32.499 13.743,30.775 14.614 C 29.809 15.102,29.825 15.131,31.186 15.346 C 33.112 15.651,35.000 16.447,35.000 16.954 C 35.000 17.144,34.870 17.181,34.458 17.110 C 31.646 16.621,30.043 16.854,31.519 17.537 C 33.357 18.386,33.629 19.000,32.168 19.000 C 30.601 19.000,28.140 19.671,27.464 20.282 C 26.912 20.782,27.121 20.940,28.625 21.160 C 29.427 21.277,30.675 21.514,31.398 21.687 C 32.121 21.859,32.740 22.000,32.773 22.000 C 33.100 22.000,32.661 22.597,31.958 23.106 C 30.780 23.960,28.599 25.717,27.612 26.607 C 26.702 27.428,26.541 27.468,26.038 27.000 C 25.842 26.817,25.621 26.664,25.549 26.661 C 25.082 26.643,24.334 25.551,24.621 25.308 C 24.947 25.032,26.393 24.671,27.221 24.659 L 27.750 24.652 27.120 24.319 C 26.773 24.136,26.002 23.941,25.406 23.885 C 24.189 23.772,23.946 23.582,24.473 23.155 C 25.019 22.713,24.915 22.616,23.992 22.705 C 22.357 22.862,23.334 21.701,25.078 21.413 C 25.646 21.320,25.696 21.280,25.431 21.131 C 25.038 20.912,22.785 21.062,22.701 21.314 C 22.588 21.654,22.204 21.506,22.098 21.082 C 21.998 20.683,21.975 20.675,21.595 20.924 C 21.075 21.265,20.965 21.083,20.844 19.674 L 20.750 18.583 20.367 19.120 C 20.157 19.415,19.928 19.978,19.859 20.370 C 19.742 21.033,19.700 21.080,19.254 21.031 C 18.837 20.985,18.802 21.012,18.989 21.237 C 19.385 21.714,19.096 21.970,18.265 21.876 C 17.512 21.791,16.500 22.065,16.500 22.354 C 16.500 22.434,16.720 22.500,16.989 22.500 C 17.894 22.500,18.833 23.058,18.833 23.595 C 18.833 23.766,18.623 23.833,18.092 23.833 C 17.030 23.833,15.817 24.128,15.333 24.503 L 14.917 24.826 15.641 24.830 C 16.483 24.834,17.331 25.191,17.627 25.666 C 17.863 26.043,17.849 26.060,16.382 27.172 C 15.280 28.007,14.791 28.756,15.781 28.092 C 16.131 27.858,16.604 27.589,16.833 27.496 C 17.063 27.403,17.400 27.259,17.583 27.176 C 18.654 26.694,19.278 27.006,18.625 27.696 C 18.309 28.030,17.135 29.857,17.196 29.919 C 17.226 29.948,17.625 29.640,18.084 29.233 C 19.277 28.172,19.285 28.167,19.660 28.167 C 20.066 28.167,20.080 28.318,19.750 29.109 C 19.613 29.438,19.504 30.167,19.510 30.729 L 19.520 31.750 19.945 30.833 C 20.696 29.214,21.418 28.717,21.612 29.685 C 21.696 30.103,21.745 30.151,21.866 29.935 C 22.161 29.408,22.820 30.055,23.270 31.314 L 23.485 31.917 23.493 31.386 C 23.497 31.093,23.351 30.231,23.168 29.469 C 22.669 27.387,22.763 27.258,24.120 28.174 L 24.872 28.681 24.514 28.216 C 23.772 27.252,23.662 27.040,23.764 26.773 C 23.946 26.300,26.107 27.149,26.264 27.756 C 26.379 28.201,27.182 28.211,27.417 27.769 C 27.595 27.432,28.958 26.616,31.500 25.325 C 34.775 23.660,34.796 23.865,31.751 27.750 C 28.847 31.455,28.755 32.163,31.549 29.301 C 33.360 27.447,34.926 26.167,35.385 26.167 C 35.579 26.167,35.495 26.610,34.833 29.083 C 34.271 31.182,33.910 35.333,34.288 35.333 C 34.380 35.333,34.700 34.640,35.001 33.792 C 35.567 32.197,36.282 30.663,36.731 30.083 C 37.077 29.637,37.066 29.795,36.600 32.013 C 35.366 37.880,34.679 47.299,34.634 58.958 L 34.614 64.333 34.151 64.333 C 33.775 64.333,33.679 64.251,33.636 63.892 C 33.526 62.972,32.333 63.094,32.333 64.026 C 32.333 64.195,32.225 64.333,32.093 64.333 C 31.639 64.333,31.356 65.775,31.702 66.329 C 31.969 66.756,31.744 67.201,31.292 67.137 C 30.936 67.086,30.914 67.001,30.869 65.469 L 30.822 63.854 31.551 63.531 C 32.939 62.918,33.712 61.544,33.369 60.302 C 33.251 59.876,33.268 59.615,33.432 59.319 C 34.266 57.813,34.331 56.003,33.608 54.425 C 33.250 53.641,33.218 53.436,33.374 52.928 C 34.102 50.553,30.969 48.604,28.818 50.094 C 28.249 50.488,28.102 50.524,27.739 50.358 C 26.576 49.829,24.538 50.489,25.500 51.083 C 25.721 51.220,25.715 52.167,25.493 52.167 C 25.220 52.167,23.529 50.866,23.338 50.509 C 22.498 48.940,23.268 48.333,26.100 48.333 C 27.802 48.333,28.337 48.280,28.491 48.094 C 28.828 47.688,28.430 47.195,27.715 47.135 C 26.759 47.055,26.780 46.125,27.741 46.000 C 28.496 45.902,28.843 45.496,28.512 45.097 C 28.332 44.881,27.896 44.833,26.105 44.831 C 22.879 44.828,23.238 45.313,23.107 40.779 C 22.978 36.296,22.614 32.837,22.077 31.000 C 21.822 30.127,21.832 31.441,22.136 38.500 C 22.456 45.960,22.462 45.797,21.875 45.933 C 20.890 46.162,20.847 47.033,21.810 47.245 C 22.244 47.340,22.299 47.432,22.393 48.217 C 22.588 49.844,22.586 49.851,21.855 49.734 C 21.207 49.631,20.456 50.056,18.315 51.741 C 18.076 51.929,17.738 52.179,17.565 52.297 C 14.633 54.284,12.000 56.305,12.001 56.567 C 12.003 56.993,12.802 57.756,13.021 57.542 C 13.138 57.427,13.296 57.333,13.372 57.333 C 13.490 57.333,13.449 65.613,13.327 66.333 C 13.304 66.471,13.339 66.709,13.406 66.863 C 13.500 67.081,13.424 67.154,13.055 67.196 C 12.485 67.261,12.371 67.886,12.917 67.953 C 13.100 67.976,13.156 67.952,13.042 67.900 C 12.717 67.753,12.796 67.506,13.220 67.345 L 13.607 67.198 13.649 62.200 C 13.688 57.535,13.613 56.580,13.252 57.164 C 13.062 57.470,12.663 57.341,12.466 56.910 C 12.303 56.552,12.323 56.438,12.595 56.176 C 13.237 55.559,21.323 49.833,21.554 49.833 C 21.684 49.833,22.606 50.432,23.603 51.163 C 24.601 51.895,25.510 52.495,25.625 52.497 C 25.895 52.501,25.907 51.140,25.639 50.872 C 25.361 50.594,25.774 50.468,26.753 50.532 L 27.548 50.583 27.515 52.169 C 27.477 53.993,27.436 53.928,29.557 55.417 C 30.825 56.307,30.945 56.479,30.665 57.003 C 30.501 57.309,30.380 57.348,29.878 57.254 L 29.285 57.142 29.396 58.089 C 29.475 58.764,29.609 59.118,29.863 59.324 C 30.803 60.085,30.770 64.393,29.816 65.293 C 29.414 65.673,29.333 65.882,29.333 66.550 L 29.333 67.351 31.000 67.314 C 32.800 67.274,32.963 67.170,32.262 66.511 C 31.677 65.962,31.734 64.775,32.353 64.613 C 32.578 64.554,32.676 64.431,32.618 64.279 C 32.567 64.147,32.639 63.876,32.778 63.678 C 33.091 63.230,33.500 63.484,33.500 64.127 C 33.500 64.791,33.937 65.007,34.721 64.731 C 35.081 64.604,35.676 64.500,36.043 64.500 L 36.711 64.500 36.626 65.625 C 36.578 66.244,36.512 66.862,36.478 67.000 C 36.427 67.207,36.696 67.258,38.042 67.298 L 39.667 67.345 39.667 66.506 C 39.667 66.044,39.610 65.667,39.542 65.666 C 39.473 65.666,39.417 65.985,39.417 66.375 L 39.417 67.083 38.557 67.133 L 37.698 67.183 37.516 66.333 C 37.181 64.776,37.673 64.153,38.452 65.148 C 38.675 65.433,38.940 65.667,39.041 65.667 C 39.142 65.667,39.050 65.480,38.836 65.252 C 38.617 65.020,38.433 64.600,38.415 64.294 C 38.398 63.995,38.316 63.600,38.233 63.417 C 38.013 62.927,38.066 61.405,38.315 61.106 C 38.432 60.964,38.479 60.768,38.419 60.670 C 38.168 60.264,38.530 59.480,39.093 59.212 C 39.566 58.986,39.672 58.831,39.763 58.224 C 39.917 57.193,39.792 56.950,39.237 57.203 C 38.857 57.376,38.765 57.360,38.565 57.087 C 38.154 56.524,38.291 56.377,41.182 54.299 C 42.749 53.172,44.787 51.706,45.711 51.042 C 47.587 49.692,47.642 49.676,48.386 50.225 C 49.111 50.761,49.333 50.877,49.333 50.718 C 49.333 50.502,47.914 49.667,47.548 49.667 C 47.365 49.667,46.885 49.916,46.482 50.221 C 45.866 50.687,42.719 52.962,39.685 55.134 C 38.029 56.320,38.213 56.251,37.547 55.933 L 36.948 55.647 37.057 52.699 C 37.347 44.800,37.521 41.283,38.009 33.417 C 38.322 28.368,38.322 28.368,39.236 29.282 C 39.918 29.964,40.668 31.654,41.773 35.000 C 41.841 35.206,41.887 35.195,42.031 34.938 C 42.386 34.306,42.092 29.748,41.601 28.265 C 41.054 26.612,41.033 26.621,42.605 27.812 C 44.211 29.027,44.858 29.697,46.091 31.417 L 47.047 32.750 46.932 32.000 C 46.735 30.725,44.900 27.396,43.348 25.500 C 42.609 24.597,42.999 24.617,45.234 25.596 C 46.192 26.015,47.562 26.761,48.279 27.254 C 48.996 27.747,49.644 28.089,49.720 28.014 C 50.189 27.544,48.220 25.171,46.301 23.895 C 44.971 23.011,44.924 22.951,45.203 22.502 C 45.708 21.689,47.754 21.152,49.136 21.470 C 50.025 21.675,50.202 21.418,49.678 20.683 C 48.983 19.707,46.672 19.000,44.176 19.000 C 41.829 19.000,43.730 17.539,46.292 17.375 C 47.812 17.277,47.850 17.243,47.245 16.524 C 46.668 15.839,45.906 15.627,44.064 15.637 C 42.277 15.646,42.271 15.640,43.161 14.629 C 44.020 13.654,43.541 13.399,42.178 14.107 C 41.676 14.367,41.593 14.265,41.418 13.167 C 41.203 11.817,39.934 10.000,39.208 10.000 C 39.103 10.000,38.986 10.604,38.924 11.458 M85.060 10.917 C 84.765 11.687,85.353 11.999,89.128 13.072 C 92.765 14.107,92.467 13.976,95.000 15.640 C 98.056 17.648,100.037 18.194,98.320 16.557 C 97.059 15.354,97.234 15.272,99.500 15.999 C 101.793 16.734,101.742 16.730,103.043 16.288 C 103.707 16.062,104.722 15.742,105.300 15.576 C 106.746 15.162,106.719 15.102,104.859 14.582 C 103.273 14.139,103.195 14.133,102.337 14.385 C 101.526 14.622,101.360 14.621,100.392 14.367 C 99.140 14.039,99.113 13.983,100.042 13.641 L 100.750 13.379 99.506 13.005 C 98.387 12.669,98.128 12.649,96.923 12.803 C 95.421 12.996,95.809 13.070,90.644 11.599 C 87.142 10.601,85.269 10.372,85.060 10.917 M363.962 12.572 C 362.790 13.437,363.415 14.833,364.974 14.833 C 367.129 14.833,367.208 12.529,365.056 12.433 C 364.587 12.412,364.095 12.474,363.962 12.572 M2.521 14.817 C 2.292 14.962,4.961 15.068,13.955 15.270 C 18.703 15.376,19.406 15.323,18.667 14.911 C 18.185 14.642,2.937 14.554,2.521 14.817 M51.500 16.819 C 50.971 16.970,53.953 17.167,56.776 17.167 C 58.784 17.167,59.462 16.981,58.208 16.774 C 57.363 16.634,52.021 16.670,51.500 16.819 M124.796 27.625 L 124.750 30.583 123.792 30.633 L 122.833 30.683 122.833 33.393 C 122.833 36.769,122.871 36.699,121.080 36.633 L 119.750 36.583 119.667 33.085 C 119.587 29.748,119.568 29.585,119.250 29.537 C 118.095 29.363,118.167 29.493,118.167 27.570 C 118.167 26.442,118.107 25.850,118.000 25.917 C 117.908 25.973,117.833 26.713,117.833 27.560 C 117.833 29.570,117.934 29.500,115.067 29.500 L 112.700 29.500 112.583 30.292 C 112.427 31.349,112.426 34.590,112.582 35.390 C 112.662 35.798,112.635 36.165,112.508 36.401 C 112.306 36.778,112.352 39.337,112.586 40.772 C 112.657 41.208,112.631 41.502,112.516 41.574 C 112.268 41.727,112.270 45.204,112.519 45.452 C 112.638 45.572,112.661 45.896,112.583 46.361 C 112.428 47.288,112.427 50.540,112.581 51.451 C 112.730 52.330,112.624 52.366,110.083 52.298 L 108.250 52.250 108.201 51.125 L 108.151 50.000 107.242 50.000 L 106.333 50.000 106.333 50.903 C 106.333 52.381,106.408 52.333,104.099 52.333 C 101.463 52.333,101.667 52.671,101.667 48.300 L 101.667 44.667 98.250 44.667 L 94.833 44.667 94.833 42.083 L 94.833 39.500 93.500 39.500 L 92.167 39.500 92.167 41.907 C 92.167 43.332,92.099 44.356,92.000 44.417 C 91.895 44.482,91.833 46.363,91.833 49.510 L 91.833 54.500 90.101 54.500 C 88.006 54.500,88.167 54.765,88.167 51.320 L 88.167 48.667 86.583 48.667 L 85.000 48.667 85.000 51.261 C 85.000 54.641,85.091 54.500,82.911 54.500 L 81.167 54.500 81.167 45.591 L 81.167 36.681 79.958 36.632 L 78.750 36.583 78.704 33.625 L 78.659 30.667 74.329 30.667 L 70.000 30.667 70.000 31.240 C 70.000 31.556,69.925 31.860,69.833 31.917 C 69.598 32.062,69.626 34.780,69.869 35.454 C 70.188 36.336,69.934 36.574,68.608 36.633 L 67.500 36.682 67.497 47.133 L 67.494 57.583 67.061 56.583 C 66.457 55.188,66.420 55.090,65.899 53.500 C 65.386 51.937,65.372 51.905,65.243 52.035 C 65.193 52.084,65.262 52.416,65.395 52.771 C 65.528 53.126,65.839 53.979,66.086 54.667 C 67.588 58.858,67.658 59.000,68.226 59.004 C 69.365 59.012,69.872 60.015,69.867 62.250 C 69.862 64.235,69.506 65.370,68.818 65.588 C 68.482 65.695,68.338 67.047,68.643 67.235 C 68.721 67.284,104.665 67.330,148.518 67.339 L 228.250 67.355 228.380 62.469 C 228.452 59.782,228.466 57.261,228.411 56.867 L 228.310 56.150 227.530 56.278 C 224.224 56.819,221.668 55.011,221.206 51.803 L 221.079 50.917 219.954 50.792 C 215.618 50.312,214.322 44.572,218.022 42.236 C 218.571 41.889,218.667 41.742,218.667 41.243 C 218.667 39.635,220.068 38.083,221.735 37.844 L 222.388 37.750 222.405 36.250 C 222.455 31.980,227.116 29.960,230.080 32.924 L 230.713 33.557 231.063 33.076 C 232.604 30.960,235.309 31.047,236.459 33.250 C 236.762 33.830,236.808 35.425,236.536 35.933 C 236.374 36.235,236.435 36.365,236.992 36.909 L 237.634 37.536 238.720 37.101 C 239.917 36.623,240.437 36.577,241.623 36.848 C 243.147 37.197,243.246 37.250,243.618 37.920 C 244.367 39.268,244.500 39.712,244.500 40.854 C 244.500 41.659,244.562 42.000,244.708 42.001 C 246.112 42.007,248.552 44.378,248.225 45.418 C 248.153 45.647,249.207 46.359,249.373 46.194 C 249.447 46.119,249.487 44.714,249.462 43.071 L 249.417 40.083 248.833 40.000 C 248.282 39.921,248.247 39.878,248.199 39.208 L 248.148 38.500 264.449 38.469 C 287.482 38.426,302.227 38.499,302.387 38.656 C 302.770 39.032,302.425 39.916,301.874 39.969 L 301.331 40.021 301.374 53.719 L 301.417 67.417 310.667 67.417 L 319.917 67.417 319.962 63.970 L 320.007 60.524 320.543 60.073 L 321.079 59.622 321.141 51.891 C 321.212 42.983,321.342 43.667,319.577 43.667 C 318.052 43.667,317.833 43.750,317.833 44.333 C 317.833 44.864,318.074 45.000,319.014 45.000 C 319.710 45.000,319.920 45.274,319.292 45.363 C 318.954 45.411,318.922 45.495,318.972 46.194 C 319.044 47.199,318.633 47.667,317.679 47.667 C 316.799 47.667,316.297 47.063,316.367 46.093 C 316.411 45.501,316.370 45.410,316.042 45.363 C 315.368 45.268,315.648 45.000,316.422 45.000 C 317.232 45.000,317.295 44.935,317.393 44.000 L 317.454 43.417 319.269 43.333 L 321.083 43.250 321.130 41.325 C 321.175 39.454,321.165 39.390,320.755 39.005 C 320.184 38.468,320.179 37.640,320.744 37.269 C 321.977 36.461,323.067 38.004,321.980 39.018 L 321.460 39.504 321.546 49.621 C 321.606 56.710,321.686 59.757,321.814 59.799 C 322.706 60.096,322.745 60.256,322.833 63.943 L 322.917 67.417 323.625 67.409 C 324.015 67.405,329.829 67.386,336.546 67.367 L 348.758 67.333 351.683 63.542 C 358.276 54.996,362.727 49.333,362.851 49.333 C 362.923 49.333,363.905 50.507,365.033 51.943 C 366.161 53.378,367.983 55.674,369.083 57.045 C 370.183 58.417,371.660 60.261,372.365 61.144 C 373.070 62.028,373.838 62.868,374.071 63.013 C 374.304 63.157,374.733 63.605,375.024 64.007 C 375.591 64.790,375.639 64.850,376.211 65.518 C 376.416 65.757,376.696 66.122,376.833 66.330 C 376.971 66.538,377.170 66.799,377.277 66.910 C 377.492 67.136,382.350 67.333,387.694 67.333 C 390.817 67.333,390.833 67.335,390.833 67.700 C 390.833 67.978,390.880 68.020,391.026 67.874 C 391.447 67.453,390.864 67.167,389.591 67.167 L 388.389 67.167 383.986 62.054 C 381.565 59.242,379.496 56.912,379.389 56.878 C 379.282 56.843,378.582 57.532,377.833 58.407 C 376.185 60.334,376.364 60.329,374.833 58.500 C 373.339 56.715,373.282 56.706,372.144 58.074 C 371.652 58.664,371.200 59.151,371.140 59.157 C 371.032 59.166,367.853 55.208,364.845 51.320 C 362.637 48.465,363.051 48.490,361.059 51.098 C 360.248 52.161,359.222 53.493,358.780 54.057 C 358.339 54.622,357.694 55.458,357.347 55.917 C 356.030 57.660,356.038 57.699,356.141 49.583 C 356.163 47.842,356.121 46.042,356.047 45.583 L 355.914 44.750 354.165 44.667 L 352.417 44.583 352.371 42.042 L 352.325 39.500 351.079 39.500 L 349.833 39.500 349.833 41.801 C 349.833 44.803,349.922 44.692,347.581 44.631 L 345.750 44.583 345.705 40.632 L 345.661 36.681 344.372 36.632 L 343.083 36.583 343.038 33.625 L 342.992 30.667 342.029 30.667 C 340.656 30.667,340.667 30.692,340.667 27.467 L 340.667 24.667 338.671 24.667 L 336.674 24.667 336.629 27.625 L 336.583 30.583 335.625 30.633 L 334.667 30.683 334.667 33.502 C 334.667 36.810,334.726 36.711,332.789 36.632 L 331.583 36.583 331.500 33.085 C 331.420 29.748,331.401 29.585,331.083 29.537 C 329.928 29.363,330.000 29.493,330.000 27.570 C 330.000 26.442,329.940 25.850,329.833 25.917 C 329.742 25.973,329.667 26.717,329.667 27.573 C 329.667 29.543,329.756 29.480,326.905 29.537 L 324.583 29.583 324.435 30.333 C 324.258 31.230,324.246 34.456,324.417 35.473 C 324.495 35.938,324.472 36.262,324.352 36.381 C 324.117 36.616,324.100 40.106,324.333 40.250 C 324.425 40.307,324.500 40.607,324.500 40.917 C 324.500 41.227,324.425 41.527,324.333 41.583 C 324.114 41.719,324.114 45.281,324.333 45.417 C 324.555 45.554,324.547 46.720,324.323 46.944 C 324.138 47.129,324.202 50.121,324.418 51.435 C 324.549 52.231,324.385 52.327,322.893 52.331 C 321.764 52.334,321.833 52.765,321.833 45.719 L 321.833 39.631 322.250 39.136 C 322.789 38.496,322.792 37.776,322.258 37.242 C 321.062 36.047,319.327 37.675,320.417 38.970 C 320.804 39.430,320.833 39.590,320.833 41.232 L 320.833 43.000 319.200 43.000 C 317.352 43.000,317.167 43.094,317.167 44.033 L 317.167 44.667 316.458 44.669 C 315.353 44.673,314.789 45.493,315.793 45.637 C 316.112 45.682,316.167 45.792,316.167 46.391 C 316.167 47.255,316.495 47.751,317.227 47.992 C 318.294 48.345,319.333 47.515,319.333 46.311 C 319.333 45.861,319.406 45.667,319.573 45.667 C 319.903 45.667,320.042 45.395,319.916 44.999 C 319.830 44.726,319.663 44.667,318.989 44.667 C 318.278 44.667,318.167 44.622,318.167 44.333 C 318.167 44.028,318.278 44.000,319.500 44.000 L 320.833 44.000 320.831 47.958 C 320.828 51.936,320.759 52.468,320.267 52.280 C 320.060 52.200,320.000 51.933,320.000 51.089 L 320.000 50.000 319.091 50.000 L 318.182 50.000 318.133 51.125 L 318.083 52.250 316.023 52.297 C 313.283 52.359,313.500 52.702,313.500 48.313 L 313.500 44.667 310.173 44.667 C 306.184 44.667,306.500 44.917,306.500 41.761 L 306.500 39.500 305.250 39.500 L 304.000 39.500 304.000 41.907 C 304.000 43.332,303.932 44.356,303.833 44.417 C 303.728 44.482,303.667 46.363,303.667 49.510 L 303.667 54.500 302.756 54.500 C 301.438 54.500,301.490 54.814,301.540 47.132 L 301.583 40.417 302.000 40.359 C 302.712 40.261,302.858 40.027,302.733 39.183 C 302.578 38.131,302.787 38.172,297.625 38.169 L 293.000 38.167 293.000 37.417 L 293.000 36.667 291.929 36.667 C 290.329 36.667,290.333 36.675,290.333 33.405 L 290.333 30.667 286.083 30.667 L 281.833 30.667 281.833 31.240 C 281.833 31.556,281.758 31.860,281.667 31.917 C 281.431 32.062,281.459 34.780,281.703 35.454 C 282.015 36.318,281.761 36.573,280.524 36.633 L 279.500 36.683 279.500 37.323 C 279.500 38.222,280.539 38.166,263.611 38.169 C 255.163 38.171,248.167 38.227,248.066 38.294 C 247.965 38.362,247.832 38.808,247.769 39.287 C 247.647 40.227,247.623 40.201,248.750 40.371 C 249.065 40.418,249.086 40.567,249.129 43.142 C 249.164 45.206,249.127 45.848,248.974 45.797 C 248.750 45.722,248.742 45.709,247.970 44.089 C 247.340 42.768,246.483 42.033,245.403 41.888 L 244.750 41.800 244.743 40.594 C 244.735 39.111,243.705 37.085,242.868 36.907 C 242.620 36.854,242.244 36.740,242.034 36.655 C 241.420 36.406,239.267 36.468,238.727 36.749 C 237.711 37.279,236.709 36.752,236.907 35.791 C 237.154 34.597,237.194 33.984,237.041 33.789 C 236.952 33.676,236.835 33.395,236.780 33.166 C 236.551 32.201,235.438 31.433,234.166 31.362 C 232.612 31.274,232.331 31.367,231.444 32.266 L 230.686 33.035 230.150 32.534 C 226.980 29.571,221.755 32.091,222.032 36.448 L 222.099 37.498 221.508 37.595 C 219.786 37.879,218.528 39.260,218.191 41.234 C 217.986 42.435,217.592 42.119,217.534 40.708 L 217.485 39.500 216.164 39.500 L 214.842 39.500 214.796 42.042 L 214.750 44.583 212.792 44.630 L 210.833 44.677 210.833 40.679 L 210.833 36.681 209.542 36.632 L 208.250 36.583 208.205 33.633 L 208.159 30.682 207.038 30.633 L 205.917 30.583 205.871 27.625 L 205.826 24.667 203.829 24.667 L 201.833 24.667 201.833 27.667 L 201.833 30.667 200.833 30.667 L 199.833 30.667 199.833 33.467 C 199.833 36.771,199.888 36.667,198.167 36.667 C 196.423 36.667,196.500 36.842,196.500 32.883 L 196.500 29.500 195.833 29.500 L 195.167 29.500 195.167 27.750 C 195.167 26.694,195.101 26.000,195.000 26.000 C 194.901 26.000,194.832 26.627,194.831 27.542 C 194.827 29.600,194.985 29.482,192.160 29.537 L 189.750 29.583 189.607 30.333 C 189.370 31.569,189.290 34.690,189.489 34.889 C 189.714 35.114,189.722 36.279,189.500 36.417 C 189.405 36.475,189.333 37.304,189.333 38.333 C 189.333 39.363,189.405 40.192,189.500 40.250 C 189.592 40.307,189.667 40.607,189.667 40.917 C 189.667 41.227,189.592 41.527,189.500 41.583 C 189.405 41.642,189.333 42.498,189.333 43.583 C 189.333 44.668,189.405 45.524,189.500 45.583 C 189.592 45.640,189.667 45.940,189.667 46.250 C 189.667 46.560,189.592 46.860,189.500 46.917 C 189.405 46.976,189.333 47.832,189.333 48.917 C 189.333 50.002,189.405 50.858,189.500 50.917 C 189.592 50.973,189.667 51.276,189.667 51.590 C 189.667 52.313,189.488 52.362,187.083 52.298 L 185.250 52.250 185.201 51.125 L 185.151 50.000 184.242 50.000 L 183.333 50.000 183.333 50.903 C 183.333 52.387,183.420 52.333,181.000 52.333 C 178.418 52.333,178.667 52.770,178.667 48.236 L 178.667 44.667 175.268 44.667 C 171.263 44.667,171.667 44.986,171.667 41.820 L 171.667 39.500 170.417 39.500 L 169.167 39.500 169.167 42.000 C 169.167 43.556,169.104 44.500,169.000 44.500 C 168.893 44.500,168.833 46.280,168.833 49.506 L 168.833 54.511 167.042 54.464 L 165.250 54.417 165.204 51.625 L 165.159 48.833 163.500 48.833 L 161.841 48.833 161.796 51.625 L 161.750 54.417 159.979 54.464 C 157.771 54.522,158.005 55.618,158.002 45.208 L 158.000 36.667 156.851 36.667 C 155.427 36.667,155.500 36.844,155.500 33.403 L 155.500 30.667 151.260 30.667 C 148.051 30.667,146.987 30.717,146.885 30.875 C 146.811 30.990,146.747 32.321,146.744 33.833 L 146.738 36.583 145.619 36.633 L 144.500 36.682 144.500 40.479 C 144.500 44.996,144.662 44.708,142.165 44.632 L 140.583 44.583 140.537 42.042 L 140.491 39.500 139.246 39.500 L 138.000 39.500 138.000 41.801 C 138.000 44.803,138.088 44.692,135.748 44.631 L 133.917 44.583 133.872 40.632 L 133.827 36.681 132.539 36.632 L 131.250 36.583 131.204 33.625 L 131.159 30.667 130.097 30.667 C 128.773 30.667,128.833 30.822,128.833 27.403 L 128.833 24.667 126.837 24.667 L 124.841 24.667 124.796 27.625 M250.889 40.262 C 250.723 40.693,250.955 67.188,251.125 67.359 C 251.210 67.443,252.023 67.491,252.931 67.465 L 254.583 67.417 254.627 61.625 L 254.671 55.833 253.835 55.833 C 252.399 55.833,252.333 55.681,252.333 52.359 C 252.333 48.810,252.181 49.000,255.021 49.000 C 257.682 49.000,257.500 48.756,257.500 52.333 C 257.500 55.606,257.481 55.665,256.425 55.669 C 255.267 55.674,255.324 55.346,255.373 61.678 L 255.417 67.417 260.667 67.417 L 265.917 67.417 265.964 65.717 L 266.011 64.018 265.131 63.967 L 264.250 63.917 264.199 63.208 C 264.156 62.614,264.197 62.500,264.453 62.500 C 264.622 62.500,264.911 62.394,265.096 62.264 C 265.281 62.135,265.654 62.003,265.924 61.973 C 266.674 61.887,266.566 61.429,265.781 61.364 C 264.996 61.300,265.039 60.951,265.847 60.833 C 266.600 60.723,266.614 60.280,265.868 60.167 C 265.567 60.121,265.320 60.008,265.320 59.917 C 265.320 59.825,265.567 59.712,265.868 59.667 C 266.614 59.553,266.600 59.110,265.847 59.000 C 265.040 58.882,264.996 58.534,265.780 58.469 C 266.671 58.395,266.802 57.833,265.929 57.833 C 265.307 57.833,265.197 57.703,265.533 57.367 C 265.843 57.057,284.387 57.080,284.645 57.390 C 284.878 57.672,284.724 57.833,284.222 57.833 C 283.656 57.833,283.743 58.274,284.333 58.392 C 284.959 58.517,284.997 58.959,284.388 59.031 C 283.745 59.107,283.700 59.482,284.319 59.605 C 284.957 59.733,284.994 60.126,284.375 60.197 C 284.102 60.229,283.917 60.351,283.917 60.500 C 283.917 60.649,284.102 60.771,284.375 60.803 C 284.999 60.875,284.966 61.315,284.327 61.443 C 283.728 61.563,283.758 61.895,284.376 61.968 C 284.614 61.997,284.899 62.128,285.008 62.260 C 285.118 62.392,285.386 62.500,285.604 62.500 C 285.953 62.500,286.000 62.577,286.000 63.149 C 286.000 63.881,285.835 64.000,284.814 64.000 L 284.155 64.000 284.203 65.708 L 284.250 67.417 291.853 67.460 C 298.126 67.496,299.490 67.463,299.646 67.275 C 299.785 67.108,299.824 63.445,299.793 53.565 L 299.750 40.083 275.370 40.041 C 253.286 40.003,250.980 40.024,250.889 40.262 M279.178 40.506 C 279.632 40.749,279.689 56.559,279.236 56.732 C 278.816 56.893,275.083 56.849,274.908 56.681 C 274.821 56.597,274.563 56.503,274.333 56.472 C 273.945 56.420,273.913 56.345,273.867 55.368 C 273.822 54.430,273.774 54.302,273.409 54.164 C 273.033 54.021,273.000 53.922,273.000 52.921 L 273.000 51.833 272.417 51.833 L 271.833 51.833 271.833 52.982 C 271.833 54.062,271.809 54.137,271.425 54.233 C 271.053 54.326,271.011 54.429,270.966 55.376 C 270.918 56.379,270.900 56.419,270.448 56.470 C 269.687 56.558,269.500 56.263,269.500 54.980 L 269.500 53.833 268.413 53.833 C 267.146 53.833,266.886 54.151,267.082 55.461 C 267.240 56.518,267.086 56.833,266.415 56.833 C 265.301 56.833,264.553 57.972,265.635 58.020 C 266.079 58.039,266.079 58.040,265.583 58.146 L 265.083 58.253 265.050 59.585 C 264.996 61.734,264.873 62.049,264.016 62.218 C 263.081 62.403,262.920 62.232,262.903 61.033 C 262.878 59.405,262.972 59.520,261.625 59.466 L 260.417 59.417 260.367 58.458 C 260.324 57.636,260.270 57.500,259.992 57.500 C 259.683 57.500,259.667 57.633,259.667 60.070 C 259.667 63.148,259.661 63.167,258.811 63.167 C 258.049 63.167,257.833 62.813,257.833 61.561 C 257.833 60.199,257.109 60.580,257.000 62.000 L 256.917 63.083 256.292 63.135 L 255.667 63.187 255.667 59.760 C 255.667 57.875,255.665 56.277,255.662 56.208 C 255.659 56.140,256.042 56.043,256.513 55.994 C 257.799 55.859,257.833 55.766,257.833 52.407 C 257.833 48.543,257.928 48.667,254.994 48.667 C 252.098 48.667,252.167 48.594,252.167 51.692 C 252.167 54.078,252.087 54.333,251.344 54.333 C 251.221 54.333,251.167 52.177,251.167 47.333 L 251.167 40.333 265.011 40.333 C 274.235 40.333,278.963 40.391,279.178 40.506 M299.461 44.458 L 299.417 48.583 298.125 48.632 L 296.833 48.681 296.833 51.403 C 296.833 54.690,296.944 54.529,294.725 54.465 L 293.083 54.417 293.040 47.583 C 293.016 43.825,293.032 40.657,293.076 40.542 C 293.136 40.385,293.944 40.333,296.331 40.333 L 299.506 40.333 299.461 44.458 M62.095 44.061 C 61.002 45.092,61.324 46.563,62.809 47.328 C 64.085 47.986,65.814 46.310,65.307 44.907 C 64.773 43.431,63.202 43.017,62.095 44.061 M64.172 43.919 C 65.938 44.833,65.045 47.462,63.093 47.096 C 61.581 46.812,61.241 44.791,62.570 43.981 C 63.193 43.601,63.532 43.588,64.172 43.919 M32.034 44.261 C 31.599 44.566,31.691 44.833,32.232 44.833 C 32.716 44.833,32.818 44.726,32.712 44.324 C 32.610 43.932,32.517 43.923,32.034 44.261 M50.423 45.601 C 50.267 45.757,50.197 46.000,50.256 46.184 C 50.340 46.451,50.270 46.500,49.795 46.500 C 49.145 46.500,48.833 46.748,48.833 47.266 C 48.833 47.674,49.121 47.833,49.858 47.833 C 50.271 47.833,50.339 47.887,50.256 48.149 C 50.030 48.859,50.513 49.000,53.165 49.000 C 55.925 49.000,56.167 48.954,56.167 48.432 C 56.167 47.923,55.857 47.667,55.244 47.667 C 54.775 47.667,54.722 47.616,54.722 47.167 C 54.722 46.732,54.782 46.667,55.181 46.667 C 56.104 46.667,56.512 46.078,55.967 45.533 C 55.633 45.200,50.765 45.259,50.423 45.601 M58.181 48.483 C 57.785 48.788,57.784 48.795,58.116 48.973 C 58.556 49.209,59.069 48.873,58.908 48.454 C 58.770 48.095,58.682 48.098,58.181 48.483 M18.018 48.820 C 17.584 49.147,17.662 49.500,18.167 49.500 C 18.572 49.500,18.699 49.283,18.542 48.858 C 18.420 48.529,18.405 48.528,18.018 48.820 M380.316 49.573 C 378.362 50.678,379.512 53.709,381.709 53.246 C 383.864 52.791,383.667 49.599,381.471 49.395 C 381.028 49.354,380.582 49.423,380.316 49.573 M51.509 50.491 C 51.292 50.708,50.892 50.836,50.301 50.877 L 49.417 50.938 50.438 50.969 C 51.172 50.991,51.518 50.930,51.667 50.750 C 51.949 50.410,53.550 50.408,53.831 50.748 C 54.004 50.956,54.895 51.002,59.389 51.039 L 64.740 51.083 64.951 51.500 C 65.140 51.873,65.162 51.881,65.164 51.575 C 65.169 50.853,65.023 50.833,59.550 50.833 C 54.556 50.833,54.319 50.819,54.000 50.500 C 53.533 50.033,51.973 50.027,51.509 50.491 M248.832 52.329 C 248.264 52.739,246.944 53.167,246.244 53.167 C 245.814 53.167,245.667 53.238,245.667 53.447 C 245.667 54.796,244.463 56.833,243.314 57.427 C 242.557 57.818,242.593 59.457,243.375 60.155 L 243.917 60.639 243.971 64.069 L 244.025 67.500 246.471 67.497 C 247.816 67.496,249.001 67.440,249.104 67.372 C 249.326 67.227,249.595 52.534,249.381 52.222 C 249.284 52.081,249.136 52.109,248.832 52.329 M249.167 55.801 C 249.167 58.028,249.111 58.846,248.942 59.077 C 248.594 59.553,248.333 59.230,248.333 58.323 C 248.333 57.703,248.272 57.500,248.083 57.500 C 247.896 57.500,247.833 57.700,247.833 58.300 C 247.833 59.257,247.631 59.500,246.833 59.500 C 245.963 59.500,245.833 59.279,245.833 57.800 C 245.833 56.611,245.805 56.500,245.500 56.500 C 245.099 56.500,245.100 56.507,245.428 55.687 C 245.572 55.327,245.742 54.670,245.805 54.225 L 245.921 53.417 246.956 53.302 C 247.526 53.239,248.125 53.110,248.288 53.016 C 249.139 52.520,249.167 52.608,249.167 55.801 M221.985 55.219 C 222.448 56.176,222.436 56.500,221.934 56.500 C 221.462 56.500,221.333 56.229,221.333 55.236 C 221.333 54.307,221.541 54.301,221.985 55.219 M229.206 61.542 L 229.250 67.417 233.750 67.417 L 238.250 67.417 238.294 62.585 C 238.345 57.082,238.362 57.224,237.678 57.578 C 237.074 57.890,235.150 57.920,234.623 57.625 C 234.418 57.510,233.937 57.173,233.555 56.875 C 232.931 56.388,232.748 56.333,231.757 56.333 C 230.982 56.333,230.459 56.234,230.000 56.000 C 229.641 55.817,229.305 55.667,229.255 55.667 C 229.204 55.667,229.182 58.310,229.206 61.542 M230.478 56.891 C 231.128 57.204,231.474 57.266,232.235 57.203 C 233.032 57.137,233.242 57.179,233.552 57.471 C 234.433 58.298,236.103 58.573,237.276 58.083 C 237.605 57.946,237.905 57.833,237.942 57.833 C 237.979 57.833,237.989 58.827,237.963 60.042 L 237.917 62.250 237.228 62.300 C 236.584 62.347,236.525 62.315,236.329 61.800 L 236.119 61.250 236.016 61.750 C 235.917 62.232,235.881 62.250,234.998 62.250 L 234.083 62.250 234.035 60.875 L 233.987 59.500 232.860 59.500 C 231.510 59.500,231.333 59.360,231.333 58.288 C 231.333 57.604,231.287 57.484,231.042 57.531 C 230.782 57.581,230.741 57.889,230.667 60.335 L 230.583 63.083 230.176 63.141 C 229.423 63.247,229.333 62.867,229.333 59.551 C 229.333 57.618,229.395 56.500,229.501 56.500 C 229.593 56.500,230.033 56.676,230.478 56.891 M228.167 58.800 C 228.167 59.790,228.096 60.671,228.009 60.758 C 227.922 60.845,227.828 61.404,227.800 62.000 L 227.750 63.083 227.184 63.137 C 226.378 63.214,226.339 63.070,226.336 60.046 L 226.333 57.343 226.875 57.186 C 228.182 56.809,228.167 56.790,228.167 58.800 M39.500 58.083 C 39.500 58.772,39.466 58.833,39.083 58.833 C 38.578 58.833,38.495 58.132,38.942 57.638 C 39.370 57.166,39.500 57.270,39.500 58.083 M239.273 58.212 C 239.170 58.606,239.311 66.940,239.427 67.301 C 239.474 67.447,239.732 67.502,240.207 67.468 L 240.917 67.417 241.000 64.083 C 241.087 60.609,241.185 60.122,241.841 59.914 C 242.140 59.819,242.176 59.690,242.133 58.886 L 242.083 57.965 240.726 57.905 C 239.445 57.849,239.364 57.866,239.273 58.212 M267.333 58.083 C 267.333 58.363,271.244 58.461,278.825 58.370 C 282.844 58.321,282.943 58.312,282.757 58.011 C 282.563 57.698,267.333 57.769,267.333 58.083 M278.625 58.115 C 278.465 58.157,278.202 58.157,278.042 58.115 C 277.881 58.073,278.012 58.039,278.333 58.039 C 278.654 58.039,278.785 58.073,278.625 58.115 M267.505 59.160 C 266.971 59.498,267.756 59.545,274.952 59.607 C 282.115 59.668,283.029 59.619,282.762 59.185 C 282.617 58.951,267.874 58.927,267.505 59.160 M66.614 59.617 C 66.496 59.808,66.579 61.135,66.718 61.273 C 66.836 61.391,66.850 61.338,66.909 60.542 C 66.928 60.290,66.975 59.980,67.013 59.854 C 67.090 59.603,66.748 59.400,66.614 59.617 M267.792 60.303 C 267.097 60.383,267.243 60.619,268.042 60.705 C 270.070 60.924,282.750 60.747,282.750 60.500 C 282.750 60.270,269.588 60.096,267.792 60.303 M267.375 61.708 C 267.513 62.124,282.833 62.066,282.833 61.650 C 282.833 61.563,279.555 61.500,275.069 61.500 C 268.932 61.500,267.320 61.544,267.375 61.708 M66.635 63.528 C 66.591 63.650,66.562 64.537,66.570 65.500 L 66.583 67.250 67.352 67.300 L 68.120 67.350 68.225 66.717 C 68.382 65.767,68.365 65.694,67.964 65.637 C 67.494 65.569,66.787 64.539,66.901 64.086 C 67.004 63.677,66.761 63.169,66.635 63.528 M273.453 63.960 L 267.822 64.004 267.869 65.711 L 267.917 67.417 275.072 67.460 C 280.686 67.494,282.257 67.458,282.361 67.293 C 282.435 67.178,282.496 66.390,282.497 65.542 L 282.500 64.000 281.014 64.000 C 280.196 64.000,279.427 63.981,279.305 63.958 C 279.183 63.935,276.549 63.936,273.453 63.960 M279.465 65.794 C 279.508 67.020,279.482 67.167,279.215 67.167 C 278.952 67.167,278.917 67.000,278.917 65.746 C 278.917 63.704,279.393 63.745,279.465 65.794 M67.500 66.417 C 67.500 66.925,67.174 67.285,66.933 67.044 C 66.878 66.989,66.836 66.526,66.839 66.014 L 66.844 65.083 67.172 65.477 C 67.352 65.693,67.500 66.116,67.500 66.417 M30.188 67.045 C 29.870 67.363,29.500 67.032,29.500 66.431 C 29.500 65.393,30.235 65.092,30.302 66.102 C 30.330 66.530,30.279 66.954,30.188 67.045 M33.708 66.268 C 33.594 66.319,33.500 66.580,33.500 66.847 L 33.500 67.333 34.833 67.333 L 36.167 67.333 36.167 66.833 C 36.167 66.419,36.099 66.333,35.773 66.333 C 35.557 66.333,35.051 66.298,34.648 66.254 C 34.246 66.211,33.823 66.217,33.708 66.268 M34.667 66.750 C 34.667 67.081,34.583 67.167,34.260 67.167 C 33.760 67.167,33.570 66.900,33.839 66.576 C 34.176 66.170,34.667 66.273,34.667 66.750 M27.444 72.278 C 27.383 72.339,27.333 72.526,27.333 72.694 C 27.333 73.136,40.277 73.175,40.446 72.733 C 40.502 72.586,40.444 72.400,40.316 72.319 C 40.048 72.150,27.612 72.110,27.444 72.278 M40.167 72.667 C 40.167 72.775,37.972 72.833,33.917 72.833 C 29.861 72.833,27.667 72.775,27.667 72.667 C 27.667 72.559,29.861 72.500,33.917 72.500 C 37.972 72.500,40.167 72.559,40.167 72.667 M210.556 72.928 C 210.371 73.410,210.760 73.512,212.598 73.464 C 214.341 73.419,214.419 73.401,214.470 73.042 C 214.540 72.551,210.743 72.440,210.556 72.928 M214.250 73.000 C 214.316 73.107,213.693 73.167,212.500 73.167 C 211.307 73.167,210.684 73.107,210.750 73.000 C 210.807 72.907,211.582 72.833,212.500 72.833 C 213.418 72.833,214.193 72.907,214.250 73.000 M135.890 73.592 C 135.685 74.128,136.103 74.172,141.011 74.128 C 145.791 74.084,145.917 74.075,145.917 73.750 C 145.917 73.287,136.067 73.131,135.890 73.592 M145.667 73.833 C 145.667 73.941,143.976 74.000,140.927 74.000 C 137.946 74.000,136.148 73.938,136.083 73.833 C 136.016 73.724,137.637 73.667,140.823 73.667 C 143.941 73.667,145.667 73.726,145.667 73.833 M228.575 74.013 C 228.302 74.456,229.025 74.502,235.594 74.460 C 241.528 74.422,242.417 74.384,242.417 74.167 C 242.417 73.847,228.772 73.695,228.575 74.013 M251.506 74.077 C 251.184 74.464,251.508 74.516,253.925 74.464 C 255.712 74.425,256.083 74.374,256.083 74.167 C 256.083 73.791,251.812 73.707,251.506 74.077 M242.167 74.167 C 242.167 74.275,239.833 74.333,235.500 74.333 C 231.167 74.333,228.833 74.275,228.833 74.167 C 228.833 74.058,231.167 74.000,235.500 74.000 C 239.833 74.000,242.167 74.058,242.167 74.167 M255.667 74.167 C 255.667 74.268,254.917 74.333,253.750 74.333 C 252.583 74.333,251.833 74.268,251.833 74.167 C 251.833 74.065,252.583 74.000,253.750 74.000 C 254.917 74.000,255.667 74.065,255.667 74.167 M166.289 74.600 C 165.847 75.042,166.445 75.167,169.000 75.167 C 171.555 75.167,172.153 75.042,171.711 74.600 C 171.581 74.470,166.419 74.470,166.289 74.600 M171.333 74.833 C 170.999 75.049,166.883 75.049,166.750 74.833 C 166.683 74.725,167.512 74.668,169.115 74.669 C 170.770 74.671,171.501 74.725,171.333 74.833 M65.559 75.753 C 65.388 76.198,65.732 76.354,66.767 76.301 C 67.622 76.257,67.750 76.207,67.750 75.917 C 67.750 75.461,65.729 75.310,65.559 75.753 M67.208 75.954 C 66.910 75.991,66.423 75.991,66.125 75.954 C 65.827 75.917,66.071 75.887,66.667 75.887 C 67.262 75.887,67.506 75.917,67.208 75.954 M281.032 76.625 C 281.084 76.896,281.486 76.917,286.667 76.917 C 291.847 76.917,292.249 76.896,292.302 76.625 C 292.354 76.352,291.997 76.333,286.667 76.333 C 281.336 76.333,280.979 76.352,281.032 76.625 M31.208 78.451 C 30.974 78.496,30.833 78.644,30.833 78.845 C 30.833 79.142,30.965 79.167,32.583 79.167 C 34.040 79.167,34.333 79.124,34.333 78.913 C 34.333 78.428,32.631 78.177,31.208 78.451 M102.465 78.509 C 101.768 78.916,102.331 79.167,103.940 79.167 C 105.525 79.167,106.134 78.898,105.483 78.486 C 105.166 78.285,102.819 78.303,102.465 78.509 M182.577 78.676 C 182.334 79.070,182.845 79.176,184.764 79.131 C 186.397 79.092,186.750 79.039,186.750 78.833 C 186.750 78.515,182.770 78.365,182.577 78.676 M33.917 78.833 C 33.860 78.925,33.218 79.000,32.490 79.000 C 31.719 79.000,31.167 78.930,31.167 78.833 C 31.167 78.735,31.753 78.667,32.593 78.667 C 33.502 78.667,33.982 78.727,33.917 78.833 M105.250 78.833 C 105.193 78.925,104.593 79.000,103.917 79.000 C 103.240 79.000,102.640 78.925,102.583 78.833 C 102.518 78.727,103.002 78.667,103.917 78.667 C 104.832 78.667,105.316 78.727,105.250 78.833 M186.500 78.833 C 186.500 78.934,185.809 79.000,184.760 79.000 C 183.780 79.000,182.975 78.927,182.917 78.833 C 182.850 78.726,183.470 78.667,184.657 78.667 C 185.774 78.667,186.500 78.732,186.500 78.833 " stroke="none" fill="#0000ff" fill-rule="evenodd"></path><path id="path2" d="M0.000 43.417 L 0.000 86.833 200.000 86.833 L 400.000 86.833 400.000 43.417 L 400.000 0.000 200.000 0.000 L 0.000 0.000 0.000 43.417 M367.168 2.873 C 369.754 4.254,370.202 8.166,367.988 10.037 C 366.163 11.578,365.738 11.762,364.470 11.559 C 363.981 11.481,363.768 11.350,363.658 11.060 C 363.576 10.844,363.430 10.667,363.334 10.667 C 362.978 10.667,361.684 9.293,361.330 8.540 C 359.646 4.956,363.699 1.022,367.168 2.873 M32.417 3.443 C 34.730 4.179,33.841 4.220,20.278 4.012 C 7.097 3.810,4.283 3.716,4.427 3.484 C 4.478 3.401,5.659 3.324,7.052 3.313 C 8.444 3.301,10.108 3.232,10.750 3.159 C 13.018 2.902,31.474 3.143,32.417 3.443 M39.905 10.397 C 40.557 10.893,41.261 12.184,41.418 13.167 C 41.593 14.265,41.676 14.367,42.178 14.107 C 43.541 13.399,44.020 13.654,43.161 14.629 C 42.271 15.640,42.277 15.646,44.064 15.637 C 45.906 15.627,46.668 15.839,47.245 16.524 C 47.850 17.243,47.812 17.277,46.292 17.375 C 43.730 17.539,41.829 19.000,44.176 19.000 C 46.672 19.000,48.983 19.707,49.678 20.683 C 50.202 21.418,50.025 21.675,49.136 21.470 C 47.754 21.152,45.708 21.689,45.203 22.502 C 44.924 22.951,44.971 23.011,46.301 23.895 C 48.220 25.171,50.189 27.544,49.720 28.014 C 49.644 28.089,48.996 27.747,48.279 27.254 C 47.562 26.761,46.192 26.015,45.234 25.596 C 42.999 24.617,42.609 24.597,43.348 25.500 C 44.900 27.396,46.735 30.725,46.932 32.000 L 47.047 32.750 46.091 31.417 C 44.858 29.697,44.211 29.027,42.605 27.812 C 41.033 26.621,41.054 26.612,41.601 28.265 C 42.092 29.748,42.386 34.306,42.031 34.938 C 41.887 35.195,41.841 35.206,41.773 35.000 C 40.668 31.654,39.918 29.964,39.236 29.282 C 38.322 28.368,38.322 28.368,38.009 33.417 C 37.521 41.283,37.347 44.800,37.057 52.699 L 36.948 55.647 37.547 55.933 C 38.213 56.251,38.029 56.320,39.685 55.134 C 42.719 52.962,45.866 50.687,46.482 50.221 C 46.885 49.916,47.365 49.667,47.548 49.667 C 47.905 49.667,49.333 50.500,49.333 50.708 C 49.334 51.009,51.167 50.833,51.500 50.500 C 51.973 50.027,53.527 50.027,54.000 50.500 C 54.319 50.819,54.556 50.833,59.550 50.833 C 65.056 50.833,65.167 50.849,65.167 51.603 C 65.167 51.806,65.224 51.997,65.294 52.028 C 65.365 52.058,65.634 52.721,65.893 53.500 C 66.423 55.098,66.462 55.199,67.061 56.583 L 67.494 57.583 67.497 47.133 L 67.500 36.682 68.608 36.633 C 69.934 36.574,70.188 36.336,69.869 35.454 C 69.626 34.780,69.598 32.062,69.833 31.917 C 69.925 31.860,70.000 31.556,70.000 31.240 L 70.000 30.667 74.329 30.667 L 78.659 30.667 78.704 33.625 L 78.750 36.583 79.958 36.632 L 81.167 36.681 81.167 45.591 L 81.167 54.500 82.911 54.500 C 85.091 54.500,85.000 54.641,85.000 51.261 L 85.000 48.667 86.583 48.667 L 88.167 48.667 88.167 51.320 C 88.167 54.765,88.006 54.500,90.101 54.500 L 91.833 54.500 91.833 49.510 C 91.833 46.363,91.895 44.482,92.000 44.417 C 92.099 44.356,92.167 43.332,92.167 41.907 L 92.167 39.500 93.500 39.500 L 94.833 39.500 94.833 42.083 L 94.833 44.667 98.250 44.667 L 101.667 44.667 101.667 48.300 C 101.667 52.671,101.463 52.333,104.099 52.333 C 106.408 52.333,106.333 52.381,106.333 50.903 L 106.333 50.000 107.242 50.000 L 108.151 50.000 108.201 51.125 L 108.250 52.250 110.083 52.298 C 112.624 52.366,112.730 52.330,112.581 51.451 C 112.427 50.540,112.428 47.288,112.583 46.361 C 112.661 45.896,112.638 45.572,112.519 45.452 C 112.270 45.204,112.268 41.727,112.516 41.574 C 112.631 41.502,112.657 41.208,112.586 40.772 C 112.352 39.337,112.306 36.778,112.508 36.401 C 112.635 36.165,112.662 35.798,112.582 35.390 C 112.426 34.590,112.427 31.349,112.583 30.292 L 112.700 29.500 115.067 29.500 C 117.934 29.500,117.833 29.570,117.833 27.560 C 117.833 26.713,117.908 25.973,118.000 25.917 C 118.107 25.850,118.167 26.442,118.167 27.570 C 118.167 29.493,118.095 29.363,119.250 29.537 C 119.568 29.585,119.587 29.748,119.667 33.085 L 119.750 36.583 121.080 36.633 C 122.871 36.699,122.833 36.769,122.833 33.393 L 122.833 30.683 123.792 30.633 L 124.750 30.583 124.796 27.625 L 124.841 24.667 126.837 24.667 L 128.833 24.667 128.833 27.403 C 128.833 30.822,128.773 30.667,130.097 30.667 L 131.159 30.667 131.204 33.625 L 131.250 36.583 132.539 36.632 L 133.827 36.681 133.872 40.632 L 133.917 44.583 135.748 44.631 C 138.088 44.692,138.000 44.803,138.000 41.801 L 138.000 39.500 139.246 39.500 L 140.491 39.500 140.537 42.042 L 140.583 44.583 142.165 44.632 C 144.662 44.708,144.500 44.996,144.500 40.479 L 144.500 36.682 145.619 36.633 L 146.738 36.583 146.744 33.833 C 146.747 32.321,146.811 30.990,146.885 30.875 C 146.987 30.717,148.051 30.667,151.260 30.667 L 155.500 30.667 155.500 33.403 C 155.500 36.844,155.427 36.667,156.851 36.667 L 158.000 36.667 158.002 45.208 C 158.005 55.618,157.771 54.522,159.979 54.464 L 161.750 54.417 161.796 51.625 L 161.841 48.833 163.500 48.833 L 165.159 48.833 165.204 51.625 L 165.250 54.417 167.042 54.464 L 168.833 54.511 168.833 49.506 C 168.833 46.280,168.893 44.500,169.000 44.500 C 169.104 44.500,169.167 43.556,169.167 42.000 L 169.167 39.500 170.417 39.500 L 171.667 39.500 171.667 41.820 C 171.667 44.986,171.263 44.667,175.268 44.667 L 178.667 44.667 178.667 48.236 C 178.667 52.770,178.418 52.333,181.000 52.333 C 183.420 52.333,183.333 52.387,183.333 50.903 L 183.333 50.000 184.242 50.000 L 185.151 50.000 185.201 51.125 L 185.250 52.250 187.083 52.298 C 189.488 52.362,189.667 52.313,189.667 51.590 C 189.667 51.276,189.592 50.973,189.500 50.917 C 189.405 50.858,189.333 50.002,189.333 48.917 C 189.333 47.832,189.405 46.976,189.500 46.917 C 189.592 46.860,189.667 46.560,189.667 46.250 C 189.667 45.940,189.592 45.640,189.500 45.583 C 189.405 45.524,189.333 44.668,189.333 43.583 C 189.333 42.498,189.405 41.642,189.500 41.583 C 189.592 41.527,189.667 41.227,189.667 40.917 C 189.667 40.607,189.592 40.307,189.500 40.250 C 189.405 40.192,189.333 39.363,189.333 38.333 C 189.333 37.304,189.405 36.475,189.500 36.417 C 189.722 36.279,189.714 35.114,189.489 34.889 C 189.290 34.690,189.370 31.569,189.607 30.333 L 189.750 29.583 192.160 29.537 C 194.985 29.482,194.827 29.600,194.831 27.542 C 194.832 26.627,194.901 26.000,195.000 26.000 C 195.101 26.000,195.167 26.694,195.167 27.750 L 195.167 29.500 195.833 29.500 L 196.500 29.500 196.500 32.883 C 196.500 36.842,196.423 36.667,198.167 36.667 C 199.888 36.667,199.833 36.771,199.833 33.467 L 199.833 30.667 200.833 30.667 L 201.833 30.667 201.833 27.667 L 201.833 24.667 203.829 24.667 L 205.826 24.667 205.871 27.625 L 205.917 30.583 207.038 30.633 L 208.159 30.682 208.205 33.633 L 208.250 36.583 209.542 36.632 L 210.833 36.681 210.833 40.679 L 210.833 44.677 212.792 44.630 L 214.750 44.583 214.796 42.042 L 214.842 39.500 216.164 39.500 L 217.485 39.500 217.534 40.708 C 217.592 42.119,217.986 42.435,218.191 41.234 C 218.528 39.260,219.786 37.879,221.508 37.595 L 222.099 37.498 222.032 36.448 C 221.755 32.091,226.980 29.571,230.150 32.534 L 230.686 33.035 231.444 32.266 C 233.049 30.639,236.310 31.188,236.780 33.166 C 236.835 33.395,236.952 33.676,237.041 33.789 C 237.194 33.984,237.154 34.597,236.907 35.791 C 236.709 36.752,237.711 37.279,238.727 36.749 C 239.267 36.468,241.420 36.406,242.034 36.655 C 242.244 36.740,242.620 36.854,242.868 36.907 C 243.705 37.085,244.735 39.111,244.743 40.594 L 244.750 41.800 245.403 41.888 C 246.483 42.033,247.340 42.768,247.970 44.089 C 248.742 45.709,248.750 45.722,248.974 45.797 C 249.127 45.848,249.164 45.206,249.129 43.142 C 249.086 40.567,249.065 40.418,248.750 40.371 C 247.623 40.201,247.647 40.227,247.769 39.287 C 247.832 38.808,247.965 38.362,248.066 38.294 C 248.167 38.227,255.163 38.171,263.611 38.169 C 280.539 38.166,279.500 38.222,279.500 37.323 L 279.500 36.683 280.524 36.633 C 281.761 36.573,282.015 36.318,281.703 35.454 C 281.459 34.780,281.431 32.062,281.667 31.917 C 281.758 31.860,281.833 31.556,281.833 31.240 L 281.833 30.667 286.083 30.667 L 290.333 30.667 290.333 33.405 C 290.333 36.675,290.329 36.667,291.929 36.667 L 293.000 36.667 293.000 37.417 L 293.000 38.167 297.625 38.169 C 302.787 38.172,302.578 38.131,302.733 39.183 C 302.858 40.027,302.712 40.261,302.000 40.359 L 301.583 40.417 301.540 47.132 C 301.490 54.814,301.438 54.500,302.756 54.500 L 303.667 54.500 303.667 49.510 C 303.667 46.363,303.728 44.482,303.833 44.417 C 303.932 44.356,304.000 43.332,304.000 41.907 L 304.000 39.500 305.250 39.500 L 306.500 39.500 306.500 41.761 C 306.500 44.917,306.184 44.667,310.173 44.667 L 313.500 44.667 313.500 48.313 C 313.500 52.702,313.283 52.359,316.023 52.297 L 318.083 52.250 318.133 51.125 L 318.182 50.000 319.091 50.000 L 320.000 50.000 320.000 51.089 C 320.000 51.933,320.060 52.200,320.267 52.280 C 320.759 52.468,320.828 51.936,320.831 47.958 L 320.833 44.000 319.500 44.000 C 318.278 44.000,318.167 44.028,318.167 44.333 C 318.167 44.622,318.278 44.667,318.989 44.667 C 319.663 44.667,319.830 44.726,319.916 44.999 C 320.042 45.395,319.903 45.667,319.573 45.667 C 319.406 45.667,319.333 45.861,319.333 46.311 C 319.333 47.515,318.294 48.345,317.227 47.992 C 316.495 47.751,316.167 47.255,316.167 46.391 C 316.167 45.792,316.112 45.682,315.793 45.637 C 314.789 45.493,315.353 44.673,316.458 44.669 L 317.167 44.667 317.167 44.033 C 317.167 43.094,317.352 43.000,319.200 43.000 L 320.833 43.000 320.833 41.232 C 320.833 39.590,320.804 39.430,320.417 38.970 C 319.327 37.675,321.062 36.047,322.258 37.242 C 322.792 37.776,322.789 38.496,322.250 39.136 L 321.833 39.631 321.833 45.719 C 321.833 52.765,321.764 52.334,322.893 52.331 C 324.385 52.327,324.549 52.231,324.418 51.435 C 324.202 50.121,324.138 47.129,324.323 46.944 C 324.547 46.720,324.555 45.554,324.333 45.417 C 324.239 45.358,324.167 44.529,324.167 43.500 C 324.167 42.471,324.239 41.642,324.333 41.583 C 324.550 41.449,324.550 40.384,324.333 40.250 C 324.100 40.106,324.117 36.616,324.352 36.381 C 324.472 36.262,324.495 35.938,324.417 35.473 C 324.246 34.456,324.258 31.230,324.435 30.333 L 324.583 29.583 326.905 29.537 C 329.756 29.480,329.667 29.543,329.667 27.573 C 329.667 26.717,329.742 25.973,329.833 25.917 C 329.940 25.850,330.000 26.442,330.000 27.570 C 330.000 29.493,329.928 29.363,331.083 29.537 C 331.401 29.585,331.420 29.748,331.500 33.085 L 331.583 36.583 332.789 36.632 C 334.726 36.711,334.667 36.810,334.667 33.502 L 334.667 30.683 335.625 30.633 L 336.583 30.583 336.629 27.625 L 336.674 24.667 338.671 24.667 L 340.667 24.667 340.667 27.467 C 340.667 30.692,340.656 30.667,342.029 30.667 L 342.992 30.667 343.038 33.625 L 343.083 36.583 344.372 36.632 L 345.661 36.681 345.705 40.632 L 345.750 44.583 347.581 44.631 C 349.922 44.692,349.833 44.803,349.833 41.801 L 349.833 39.500 351.079 39.500 L 352.325 39.500 352.371 42.042 L 352.417 44.583 354.165 44.667 L 355.914 44.750 356.047 45.583 C 356.121 46.042,356.163 47.842,356.141 49.583 C 356.038 57.699,356.030 57.660,357.347 55.917 C 357.694 55.458,358.339 54.622,358.780 54.057 C 359.222 53.493,360.248 52.161,361.059 51.098 C 363.051 48.490,362.637 48.465,364.845 51.320 C 367.853 55.208,371.032 59.166,371.140 59.157 C 371.200 59.151,371.652 58.664,372.144 58.074 C 373.282 56.706,373.339 56.715,374.833 58.500 C 376.364 60.329,376.185 60.334,377.833 58.407 C 378.582 57.532,379.282 56.843,379.389 56.878 C 379.496 56.912,381.565 59.242,383.986 62.054 L 388.389 67.167 389.591 67.167 C 390.811 67.167,391.443 67.457,391.060 67.840 C 390.687 68.213,12.583 67.957,12.583 67.583 C 12.583 67.341,12.712 67.235,13.055 67.196 C 13.424 67.154,13.500 67.081,13.406 66.863 C 13.339 66.709,13.304 66.471,13.327 66.333 C 13.449 65.613,13.490 57.333,13.372 57.333 C 13.296 57.333,13.138 57.427,13.021 57.542 C 12.802 57.756,12.003 56.993,12.001 56.567 C 12.000 56.305,14.633 54.284,17.565 52.297 C 17.738 52.179,18.076 51.929,18.315 51.741 C 20.456 50.056,21.207 49.631,21.855 49.734 C 22.586 49.851,22.588 49.844,22.393 48.217 C 22.299 47.432,22.244 47.340,21.810 47.245 C 20.847 47.033,20.890 46.162,21.875 45.933 C 22.462 45.797,22.456 45.960,22.136 38.500 C 21.832 31.441,21.822 30.127,22.077 31.000 C 22.614 32.837,22.978 36.296,23.107 40.779 C 23.238 45.313,22.879 44.828,26.105 44.831 C 27.896 44.833,28.332 44.881,28.512 45.097 C 28.843 45.496,28.496 45.902,27.741 46.000 C 26.780 46.125,26.759 47.055,27.715 47.135 C 28.430 47.195,28.828 47.688,28.491 48.094 C 28.337 48.280,27.802 48.333,26.100 48.333 C 23.268 48.333,22.498 48.940,23.338 50.509 C 23.529 50.866,25.220 52.167,25.493 52.167 C 25.715 52.167,25.721 51.220,25.500 51.083 C 24.538 50.489,26.576 49.829,27.739 50.358 C 28.102 50.524,28.249 50.488,28.818 50.094 C 30.969 48.604,34.102 50.553,33.374 52.928 C 33.218 53.436,33.250 53.641,33.608 54.425 C 34.331 56.003,34.266 57.813,33.432 59.319 C 33.268 59.615,33.251 59.876,33.369 60.302 C 33.712 61.544,32.939 62.918,31.551 63.531 L 30.822 63.854 30.869 65.469 C 30.914 67.001,30.936 67.086,31.292 67.137 C 31.744 67.201,31.969 66.756,31.702 66.329 C 31.356 65.775,31.639 64.333,32.093 64.333 C 32.225 64.333,32.333 64.195,32.333 64.026 C 32.333 63.094,33.526 62.972,33.636 63.892 C 33.679 64.251,33.775 64.333,34.151 64.333 L 34.614 64.333 34.634 58.958 C 34.679 47.299,35.366 37.880,36.600 32.013 C 37.066 29.795,37.077 29.637,36.731 30.083 C 36.282 30.663,35.567 32.197,35.001 33.792 C 34.700 34.640,34.380 35.333,34.288 35.333 C 33.910 35.333,34.271 31.182,34.833 29.083 C 35.495 26.610,35.579 26.167,35.385 26.167 C 34.926 26.167,33.360 27.447,31.549 29.301 C 28.755 32.163,28.847 31.455,31.751 27.750 C 34.796 23.865,34.775 23.660,31.500 25.325 C 28.958 26.616,27.595 27.432,27.417 27.769 C 27.182 28.211,26.379 28.201,26.264 27.756 C 26.107 27.149,23.946 26.300,23.764 26.773 C 23.662 27.040,23.772 27.252,24.514 28.216 L 24.872 28.681 24.120 28.174 C 22.763 27.258,22.669 27.387,23.168 29.469 C 23.351 30.231,23.497 31.093,23.493 31.386 L 23.485 31.917 23.270 31.314 C 22.820 30.055,22.161 29.408,21.866 29.935 C 21.745 30.151,21.696 30.103,21.612 29.685 C 21.418 28.717,20.696 29.214,19.945 30.833 L 19.520 31.750 19.510 30.729 C 19.504 30.167,19.613 29.438,19.750 29.109 C 20.080 28.318,20.066 28.167,19.660 28.167 C 19.285 28.167,19.277 28.172,18.084 29.233 C 17.625 29.640,17.226 29.948,17.196 29.919 C 17.135 29.857,18.309 28.030,18.625 27.696 C 19.278 27.006,18.654 26.694,17.583 27.176 C 17.400 27.259,17.063 27.403,16.833 27.496 C 16.604 27.589,16.131 27.858,15.781 28.092 C 14.791 28.756,15.280 28.007,16.382 27.172 C 17.849 26.060,17.863 26.043,17.627 25.666 C 17.331 25.191,16.483 24.834,15.641 24.830 L 14.917 24.826 15.333 24.503 C 15.817 24.128,17.030 23.833,18.092 23.833 C 18.623 23.833,18.833 23.766,18.833 23.595 C 18.833 23.058,17.894 22.500,16.989 22.500 C 16.720 22.500,16.500 22.434,16.500 22.354 C 16.500 22.065,17.512 21.791,18.265 21.876 C 19.096 21.970,19.385 21.714,18.989 21.237 C 18.802 21.012,18.837 20.985,19.254 21.031 C 19.700 21.080,19.742 21.033,19.859 20.370 C 19.928 19.978,20.157 19.415,20.367 19.120 L 20.750 18.583 20.844 19.674 C 20.965 21.083,21.075 21.265,21.595 20.924 C 21.975 20.675,21.998 20.683,22.098 21.082 C 22.204 21.506,22.588 21.654,22.701 21.314 C 22.785 21.062,25.038 20.912,25.431 21.131 C 25.696 21.280,25.646 21.320,25.078 21.413 C 23.334 21.701,22.357 22.862,23.992 22.705 C 24.915 22.616,25.019 22.713,24.473 23.155 C 23.946 23.582,24.189 23.772,25.406 23.885 C 26.002 23.941,26.773 24.136,27.120 24.319 L 27.750 24.652 27.221 24.659 C 26.393 24.671,24.947 25.032,24.621 25.308 C 24.334 25.551,25.082 26.643,25.549 26.661 C 25.621 26.664,25.842 26.817,26.038 27.000 C 26.541 27.468,26.702 27.428,27.612 26.607 C 28.599 25.717,30.780 23.960,31.958 23.106 C 32.661 22.597,33.100 22.000,32.773 22.000 C 32.740 22.000,32.121 21.859,31.398 21.687 C 30.675 21.514,29.427 21.277,28.625 21.160 C 27.121 20.940,26.912 20.782,27.464 20.282 C 28.140 19.671,30.601 19.000,32.168 19.000 C 33.629 19.000,33.357 18.386,31.519 17.537 C 30.043 16.854,31.646 16.621,34.458 17.110 C 34.870 17.181,35.000 17.144,35.000 16.954 C 35.000 16.447,33.112 15.651,31.186 15.346 C 29.825 15.131,29.809 15.102,30.775 14.614 C 32.499 13.743,34.212 13.710,35.898 14.516 C 36.254 14.686,36.619 14.780,36.708 14.724 C 36.867 14.626,36.754 12.921,36.555 12.404 C 36.372 11.926,36.919 12.357,37.644 13.260 C 38.690 14.565,38.698 14.553,38.924 11.458 C 39.040 9.868,39.111 9.791,39.905 10.397 M90.644 11.599 C 95.809 13.070,95.421 12.996,96.923 12.803 C 98.128 12.649,98.387 12.669,99.506 13.005 L 100.750 13.379 100.042 13.641 C 99.113 13.983,99.140 14.039,100.392 14.367 C 101.360 14.621,101.526 14.622,102.337 14.385 C 103.195 14.133,103.273 14.139,104.859 14.582 C 106.719 15.102,106.746 15.162,105.300 15.576 C 104.722 15.742,103.707 16.062,103.043 16.288 C 101.742 16.730,101.793 16.734,99.500 15.999 C 97.234 15.272,97.059 15.354,98.320 16.557 C 100.037 18.194,98.056 17.648,95.000 15.640 C 92.467 13.976,92.765 14.107,89.128 13.072 C 85.972 12.175,85.236 11.873,85.057 11.407 C 84.639 10.320,86.361 10.379,90.644 11.599 M366.300 12.926 C 367.075 13.827,366.375 14.833,364.974 14.833 C 363.415 14.833,362.790 13.437,363.962 12.572 C 364.449 12.213,365.872 12.428,366.300 12.926 M18.667 14.911 C 19.406 15.323,18.703 15.376,13.955 15.270 C 4.961 15.068,2.292 14.962,2.521 14.817 C 2.937 14.554,18.185 14.642,18.667 14.911 M58.208 16.774 C 59.462 16.981,58.784 17.167,56.776 17.167 C 53.953 17.167,50.971 16.970,51.500 16.819 C 52.021 16.670,57.363 16.634,58.208 16.774 M251.167 47.333 C 251.167 52.177,251.221 54.333,251.344 54.333 C 252.087 54.333,252.167 54.078,252.167 51.692 C 252.167 48.594,252.098 48.667,254.994 48.667 C 257.928 48.667,257.833 48.543,257.833 52.407 C 257.833 55.766,257.799 55.859,256.513 55.994 C 256.042 56.043,255.659 56.140,255.662 56.208 C 255.665 56.277,255.667 57.875,255.667 59.760 L 255.667 63.187 256.292 63.135 L 256.917 63.083 257.000 62.000 C 257.109 60.580,257.833 60.199,257.833 61.561 C 257.833 62.813,258.049 63.167,258.811 63.167 C 259.661 63.167,259.667 63.148,259.667 60.070 C 259.667 57.633,259.683 57.500,259.992 57.500 C 260.270 57.500,260.324 57.636,260.367 58.458 L 260.417 59.417 261.625 59.466 C 262.972 59.520,262.878 59.405,262.903 61.033 C 262.920 62.232,263.081 62.403,264.016 62.218 C 264.873 62.049,264.996 61.734,265.050 59.585 L 265.083 58.253 265.583 58.146 C 266.079 58.040,266.079 58.039,265.635 58.020 C 264.553 57.972,265.301 56.833,266.415 56.833 C 267.086 56.833,267.240 56.518,267.082 55.461 C 266.886 54.151,267.146 53.833,268.413 53.833 L 269.500 53.833 269.500 54.980 C 269.500 56.263,269.687 56.558,270.448 56.470 C 270.900 56.419,270.918 56.379,270.966 55.376 C 271.011 54.429,271.053 54.326,271.425 54.233 C 271.809 54.137,271.833 54.062,271.833 52.982 L 271.833 51.833 272.417 51.833 L 273.000 51.833 273.000 52.921 C 273.000 53.922,273.033 54.021,273.409 54.164 C 273.774 54.302,273.822 54.430,273.867 55.368 C 273.913 56.345,273.945 56.420,274.333 56.472 C 274.563 56.503,274.821 56.597,274.908 56.681 C 275.083 56.849,278.816 56.893,279.236 56.732 C 279.689 56.559,279.632 40.749,279.178 40.506 C 278.963 40.391,274.235 40.333,265.011 40.333 L 251.167 40.333 251.167 47.333 M293.076 40.542 C 293.032 40.657,293.016 43.825,293.040 47.583 L 293.083 54.417 294.725 54.465 C 296.944 54.529,296.833 54.690,296.833 51.403 L 296.833 48.681 298.125 48.632 L 299.417 48.583 299.461 44.458 L 299.506 40.333 296.331 40.333 C 293.944 40.333,293.136 40.385,293.076 40.542 M64.613 43.897 C 65.644 44.765,65.638 46.161,64.601 47.029 C 63.388 48.043,61.500 47.080,61.500 45.447 C 61.500 43.810,63.391 42.869,64.613 43.897 M32.712 44.324 C 32.818 44.726,32.716 44.833,32.232 44.833 C 31.691 44.833,31.599 44.566,32.034 44.261 C 32.517 43.923,32.610 43.932,32.712 44.324 M55.967 45.533 C 56.512 46.078,56.104 46.667,55.181 46.667 C 54.782 46.667,54.722 46.732,54.722 47.167 C 54.722 47.616,54.775 47.667,55.244 47.667 C 55.857 47.667,56.167 47.923,56.167 48.432 C 56.167 48.954,55.925 49.000,53.165 49.000 C 50.513 49.000,50.030 48.859,50.256 48.149 C 50.339 47.887,50.271 47.833,49.858 47.833 C 49.121 47.833,48.833 47.674,48.833 47.266 C 48.833 46.748,49.145 46.500,49.795 46.500 C 50.270 46.500,50.340 46.451,50.256 46.184 C 50.029 45.471,50.509 45.333,53.229 45.333 C 54.980 45.333,55.829 45.395,55.967 45.533 M58.908 48.454 C 59.069 48.873,58.556 49.209,58.116 48.973 C 57.784 48.795,57.785 48.788,58.181 48.483 C 58.682 48.098,58.770 48.095,58.908 48.454 M18.574 49.349 C 18.442 49.563,17.876 49.537,17.736 49.310 C 17.670 49.204,17.794 48.988,18.018 48.820 C 18.427 48.511,18.846 48.909,18.574 49.349 M382.679 49.929 C 383.380 50.600,383.395 52.057,382.708 52.701 C 381.393 53.936,379.333 53.108,379.333 51.343 C 379.333 49.557,381.386 48.690,382.679 49.929 M248.288 53.016 C 248.125 53.110,247.526 53.239,246.956 53.302 L 245.921 53.417 245.805 54.225 C 245.742 54.670,245.572 55.327,245.428 55.687 C 245.100 56.507,245.099 56.500,245.500 56.500 C 245.805 56.500,245.833 56.611,245.833 57.800 C 245.833 59.279,245.963 59.500,246.833 59.500 C 247.631 59.500,247.833 59.257,247.833 58.300 C 247.833 57.700,247.896 57.500,248.083 57.500 C 248.272 57.500,248.333 57.703,248.333 58.323 C 248.333 59.230,248.594 59.553,248.942 59.077 C 249.111 58.846,249.167 58.028,249.167 55.801 C 249.167 52.608,249.139 52.520,248.288 53.016 M221.333 55.236 C 221.333 56.229,221.462 56.500,221.934 56.500 C 222.436 56.500,222.448 56.176,221.985 55.219 C 221.541 54.301,221.333 54.307,221.333 55.236 M229.333 59.551 C 229.333 62.867,229.423 63.247,230.176 63.141 L 230.583 63.083 230.667 60.335 C 230.741 57.889,230.782 57.581,231.042 57.531 C 231.287 57.484,231.333 57.604,231.333 58.288 C 231.333 59.360,231.510 59.500,232.860 59.500 L 233.987 59.500 234.035 60.875 L 234.083 62.250 234.998 62.250 C 235.881 62.250,235.917 62.232,236.016 61.750 L 236.119 61.250 236.329 61.800 C 236.525 62.315,236.584 62.347,237.228 62.300 L 237.917 62.250 237.963 60.042 C 237.989 58.827,237.979 57.833,237.942 57.833 C 237.905 57.833,237.605 57.946,237.276 58.083 C 236.103 58.573,234.433 58.298,233.552 57.471 C 233.242 57.179,233.032 57.137,232.235 57.203 C 231.474 57.266,231.128 57.204,230.478 56.891 C 230.033 56.676,229.593 56.500,229.501 56.500 C 229.395 56.500,229.333 57.618,229.333 59.551 M226.875 57.186 L 226.333 57.343 226.336 60.046 C 226.339 63.070,226.378 63.214,227.184 63.137 L 227.750 63.083 227.800 62.000 C 227.828 61.404,227.922 60.845,228.009 60.758 C 228.096 60.671,228.167 59.790,228.167 58.800 C 228.167 56.790,228.182 56.809,226.875 57.186 M38.942 57.638 C 38.495 58.132,38.578 58.833,39.083 58.833 C 39.466 58.833,39.500 58.772,39.500 58.083 C 39.500 57.270,39.370 57.166,38.942 57.638 M278.042 58.115 C 278.202 58.157,278.465 58.157,278.625 58.115 C 278.785 58.073,278.654 58.039,278.333 58.039 C 278.012 58.039,277.881 58.073,278.042 58.115 M278.917 65.746 C 278.917 67.000,278.952 67.167,279.215 67.167 C 279.624 67.167,279.577 64.451,279.167 64.373 C 278.960 64.333,278.917 64.573,278.917 65.746 M37.625 64.847 C 37.283 65.046,37.272 65.198,37.516 66.333 L 37.698 67.183 38.557 67.133 L 39.417 67.083 39.468 66.458 C 39.513 65.921,39.461 65.810,39.102 65.674 C 38.872 65.586,38.559 65.324,38.406 65.091 C 38.098 64.620,38.044 64.603,37.625 64.847 M66.839 66.014 C 66.833 67.018,66.905 67.193,67.266 67.054 C 67.612 66.921,67.553 65.934,67.172 65.477 L 66.844 65.083 66.839 66.014 M29.875 65.588 C 29.420 65.908,29.342 66.950,29.761 67.111 C 30.179 67.271,30.357 66.938,30.302 66.102 C 30.250 65.331,30.247 65.327,29.875 65.588 M33.839 66.576 C 33.570 66.900,33.760 67.167,34.260 67.167 C 34.583 67.167,34.667 67.081,34.667 66.750 C 34.667 66.273,34.176 66.170,33.839 66.576 M40.316 72.319 C 40.444 72.400,40.502 72.586,40.446 72.733 C 40.277 73.175,27.333 73.136,27.333 72.694 C 27.333 72.526,27.383 72.339,27.444 72.278 C 27.612 72.110,40.048 72.150,40.316 72.319 M214.470 73.042 C 214.419 73.401,214.341 73.419,212.598 73.464 C 210.760 73.512,210.371 73.410,210.556 72.928 C 210.743 72.440,214.540 72.551,214.470 73.042 M145.917 73.750 C 145.917 74.075,145.791 74.084,141.011 74.128 C 136.103 74.172,135.685 74.128,135.890 73.592 C 136.067 73.131,145.917 73.287,145.917 73.750 M242.417 74.167 C 242.417 74.460,228.906 74.639,228.616 74.350 C 228.142 73.876,228.800 73.830,235.553 73.873 C 241.524 73.911,242.417 73.949,242.417 74.167 M256.083 74.167 C 256.083 74.374,255.712 74.425,253.925 74.464 C 251.508 74.516,251.184 74.464,251.506 74.077 C 251.812 73.707,256.083 73.791,256.083 74.167 M171.711 74.600 C 172.153 75.042,171.555 75.167,169.000 75.167 C 166.445 75.167,165.847 75.042,166.289 74.600 C 166.419 74.470,171.581 74.470,171.711 74.600 M67.750 75.917 C 67.750 76.207,67.622 76.257,66.767 76.301 C 65.732 76.354,65.388 76.198,65.559 75.753 C 65.729 75.310,67.750 75.461,67.750 75.917 M292.302 76.625 C 292.249 76.896,291.847 76.917,286.667 76.917 C 281.486 76.917,281.084 76.896,281.032 76.625 C 280.979 76.352,281.336 76.333,286.667 76.333 C 291.997 76.333,292.354 76.352,292.302 76.625 M33.906 78.496 C 34.949 78.892,34.408 79.167,32.583 79.167 C 30.965 79.167,30.833 79.142,30.833 78.845 C 30.833 78.644,30.974 78.496,31.208 78.451 C 31.940 78.310,33.485 78.336,33.906 78.496 M105.483 78.486 C 106.134 78.898,105.525 79.167,103.940 79.167 C 102.331 79.167,101.768 78.916,102.465 78.509 C 102.819 78.303,105.166 78.285,105.483 78.486 M186.750 78.833 C 186.750 79.039,186.397 79.092,184.764 79.131 C 182.845 79.176,182.334 79.070,182.577 78.676 C 182.770 78.365,186.750 78.515,186.750 78.833 " stroke="none" fill="#ffff00" fill-rule="evenodd"></path></g></svg>
